<?xml version="1.0" encoding="UTF-8" standalone="no"?><svg xmlns="http://www.w3.org/2000/svg" xmlns:xlink="http://www.w3.org/1999/xlink" contentStyleType="text/css" height="948px" preserveAspectRatio="none" style="width:191px;height:948px;background:#FFFFFF;" version="1.1" viewBox="0 0 191 948" width="191px" zoomAndPan="magnify"><defs/><g><!--MD5=[f1aef55aad04221093ce544da38573d1]
class pg_utils.pg_model.base.CollectionPG--><g id="elem_pg_utils.pg_model.base.CollectionPG"><rect codeLine="2" fill="#F1F1F1" height="541.0625" id="pg_utils.pg_model.base.CollectionPG" rx="2.5" ry="2.5" style="stroke:#181818;stroke-width:0.5;" width="154" x="15" y="7"/><ellipse cx="48" cy="23" fill="#ADD1B2" rx="11" ry="11" style="stroke:#181818;stroke-width:1.0;"/><path d="M50.7656,18.875 Q50.9219,18.6563 51.1094,18.5469 Q51.2969,18.4375 51.5156,18.4375 Q51.8906,18.4375 52.125,18.6953 Q52.3594,18.9531 52.3594,19.5625 L52.3594,21.0156 Q52.3594,21.625 52.125,21.8906 Q51.8906,22.1563 51.5156,22.1563 Q51.1719,22.1563 50.9688,21.9531 Q50.7656,21.7656 50.6563,21.25 Q50.6094,20.8906 50.4219,20.7031 Q50.0938,20.3281 49.4844,20.1094 Q48.875,19.8906 48.25,19.8906 Q47.4844,19.8906 46.8516,20.2188 Q46.2188,20.5469 45.7266,21.2969 Q45.2344,22.0469 45.2344,23.0781 L45.2344,24.1719 Q45.2344,25.4063 46.125,26.2266 Q47.0156,27.0469 48.6094,27.0469 Q49.5469,27.0469 50.2031,26.7969 Q50.5938,26.6406 51.0156,26.2031 Q51.2813,25.9375 51.4297,25.8594 Q51.5781,25.7813 51.7813,25.7813 Q52.1094,25.7813 52.3672,26.0391 Q52.625,26.2969 52.625,26.6406 Q52.625,26.9844 52.2813,27.3906 Q51.7813,27.9688 50.9844,28.2969 Q49.9063,28.75 48.6094,28.75 Q47.0938,28.75 45.8906,28.125 Q44.9063,27.625 44.2188,26.5547 Q43.5313,25.4844 43.5313,24.2031 L43.5313,23.0469 Q43.5313,21.7188 44.1484,20.5703 Q44.7656,19.4219 45.8594,18.8047 Q46.9531,18.1875 48.1875,18.1875 Q48.9219,18.1875 49.5703,18.3516 Q50.2188,18.5156 50.7656,18.875 Z " fill="#000000"/><text fill="#000000" font-family="sans-serif" font-size="14" lengthAdjust="spacing" textLength="82" x="66" y="28.7285">CollectionPG</text><line style="stroke:#181818;stroke-width:0.5;" x1="16" x2="168" y1="39" y2="39"/><text fill="#000000" font-family="sans-serif" font-size="14" lengthAdjust="spacing" textLength="33" x="21" y="57.5332">Bp_e</text><text fill="#000000" font-family="sans-serif" font-size="14" lengthAdjust="spacing" textLength="36" x="21" y="75.1426">Bp_m</text><text fill="#000000" font-family="sans-serif" font-size="14" lengthAdjust="spacing" textLength="33" x="21" y="92.752">Bp_p</text><text fill="#000000" font-family="sans-serif" font-size="14" lengthAdjust="spacing" textLength="30" x="21" y="110.3613">Br_b</text><text fill="#000000" font-family="sans-serif" font-size="14" lengthAdjust="spacing" textLength="32" x="21" y="127.9707">Bs_e</text><text fill="#000000" font-family="sans-serif" font-size="14" lengthAdjust="spacing" textLength="35" x="21" y="145.5801">Bs_m</text><text fill="#000000" font-family="sans-serif" font-size="14" lengthAdjust="spacing" textLength="32" x="21" y="163.1895">Bs_p</text><text fill="#000000" font-family="sans-serif" font-size="14" lengthAdjust="spacing" textLength="31" x="21" y="180.7988">Bz_e</text><text fill="#000000" font-family="sans-serif" font-size="14" lengthAdjust="spacing" textLength="34" x="21" y="198.4082">Bz_m</text><text fill="#000000" font-family="sans-serif" font-size="14" lengthAdjust="spacing" textLength="31" x="21" y="216.0176">Bz_p</text><text fill="#000000" font-family="sans-serif" font-size="14" lengthAdjust="spacing" textLength="27" x="21" y="233.627">Mpp</text><text fill="#000000" font-family="sans-serif" font-size="14" lengthAdjust="spacing" textLength="25" x="21" y="251.2363">Mpz</text><text fill="#000000" font-family="sans-serif" font-size="14" lengthAdjust="spacing" textLength="26" x="21" y="268.8457">Msp</text><text fill="#000000" font-family="sans-serif" font-size="14" lengthAdjust="spacing" textLength="25" x="21" y="286.4551">Mss</text><text fill="#000000" font-family="sans-serif" font-size="14" lengthAdjust="spacing" textLength="24" x="21" y="304.0645">Msz</text><text fill="#000000" font-family="sans-serif" font-size="14" lengthAdjust="spacing" textLength="19" x="21" y="321.6738">Psi</text><text fill="#000000" font-family="sans-serif" font-size="14" lengthAdjust="spacing" textLength="63" x="21" y="339.2832">dBp_dz_e</text><text fill="#000000" font-family="sans-serif" font-size="14" lengthAdjust="spacing" textLength="62" x="21" y="356.8926">dBs_dz_e</text><text fill="#000000" font-family="sans-serif" font-size="14" lengthAdjust="spacing" textLength="129" x="21" y="374.502">pg_field_names : list</text><text fill="#000000" font-family="sans-serif" font-size="14" lengthAdjust="spacing" textLength="33" x="21" y="392.1113">zMpp</text><text fill="#000000" font-family="sans-serif" font-size="14" lengthAdjust="spacing" textLength="32" x="21" y="409.7207">zMsp</text><text fill="#000000" font-family="sans-serif" font-size="14" lengthAdjust="spacing" textLength="31" x="21" y="427.3301">zMss</text><line style="stroke:#181818;stroke-width:0.5;" x1="16" x2="168" y1="434.4063" y2="434.4063"/><text fill="#000000" font-family="sans-serif" font-size="14" lengthAdjust="spacing" textLength="117" x="21" y="452.9395">subset_B_bound()</text><text fill="#000000" font-family="sans-serif" font-size="14" lengthAdjust="spacing" textLength="142" x="21" y="470.5488">subset_B_bound_cyl()</text><text fill="#000000" font-family="sans-serif" font-size="14" lengthAdjust="spacing" textLength="126" x="21" y="488.1582">subset_B_equator()</text><text fill="#000000" font-family="sans-serif" font-size="14" lengthAdjust="spacing" textLength="87" x="21" y="505.7676">subset_mag()</text><text fill="#000000" font-family="sans-serif" font-size="14" lengthAdjust="spacing" textLength="117" x="21" y="523.377">subset_moments()</text><text fill="#000000" font-family="sans-serif" font-size="14" lengthAdjust="spacing" textLength="58" x="21" y="540.9863">vorticity()</text></g><!--MD5=[fbe1b5a6a69e801a1f7451fe32c9ce86]
class pg_utils.pg_model.base.LabeledCollection--><g id="elem_pg_utils.pg_model.base.LabeledCollection"><rect codeLine="32" fill="#F1F1F1" height="118.4375" id="pg_utils.pg_model.base.LabeledCollection" rx="2.5" ry="2.5" style="stroke:#181818;stroke-width:0.5;" width="145" x="19.5" y="609"/><ellipse cx="34.5" cy="625" fill="#ADD1B2" rx="11" ry="11" style="stroke:#181818;stroke-width:1.0;"/><path d="M37.2656,620.875 Q37.4219,620.6563 37.6094,620.5469 Q37.7969,620.4375 38.0156,620.4375 Q38.3906,620.4375 38.625,620.6953 Q38.8594,620.9531 38.8594,621.5625 L38.8594,623.0156 Q38.8594,623.625 38.625,623.8906 Q38.3906,624.1563 38.0156,624.1563 Q37.6719,624.1563 37.4688,623.9531 Q37.2656,623.7656 37.1563,623.25 Q37.1094,622.8906 36.9219,622.7031 Q36.5938,622.3281 35.9844,622.1094 Q35.375,621.8906 34.75,621.8906 Q33.9844,621.8906 33.3516,622.2188 Q32.7188,622.5469 32.2266,623.2969 Q31.7344,624.0469 31.7344,625.0781 L31.7344,626.1719 Q31.7344,627.4063 32.625,628.2266 Q33.5156,629.0469 35.1094,629.0469 Q36.0469,629.0469 36.7031,628.7969 Q37.0938,628.6406 37.5156,628.2031 Q37.7813,627.9375 37.9297,627.8594 Q38.0781,627.7813 38.2813,627.7813 Q38.6094,627.7813 38.8672,628.0391 Q39.125,628.2969 39.125,628.6406 Q39.125,628.9844 38.7813,629.3906 Q38.2813,629.9688 37.4844,630.2969 Q36.4063,630.75 35.1094,630.75 Q33.5938,630.75 32.3906,630.125 Q31.4063,629.625 30.7188,628.5547 Q30.0313,627.4844 30.0313,626.2031 L30.0313,625.0469 Q30.0313,623.7188 30.6484,622.5703 Q31.2656,621.4219 32.3594,620.8047 Q33.4531,620.1875 34.6875,620.1875 Q35.4219,620.1875 36.0703,620.3516 Q36.7188,620.5156 37.2656,620.875 Z " fill="#000000"/><text fill="#000000" font-family="sans-serif" font-size="14" lengthAdjust="spacing" textLength="113" x="48.5" y="630.7285">LabeledCollection</text><line style="stroke:#181818;stroke-width:0.5;" x1="20.5" x2="163.5" y1="641" y2="641"/><text fill="#000000" font-family="sans-serif" font-size="14" lengthAdjust="spacing" textLength="55" x="25.5" y="659.5332">iter_filter</text><text fill="#000000" font-family="sans-serif" font-size="14" lengthAdjust="spacing" textLength="63" x="25.5" y="677.1426">iter_name</text><text fill="#000000" font-family="sans-serif" font-size="14" lengthAdjust="spacing" textLength="49" x="25.5" y="694.752">n_fields</text><text fill="#000000" font-family="sans-serif" font-size="14" lengthAdjust="spacing" textLength="63" x="25.5" y="712.3613">n_iter : int</text><line style="stroke:#181818;stroke-width:0.5;" x1="20.5" x2="163.5" y1="719.4375" y2="719.4375"/></g><!--MD5=[e644404bc47556349412949d56e4c1d2]
class pg_utils.pg_model.base.LabeledSubCollection--><g id="elem_pg_utils.pg_model.base.LabeledSubCollection"><rect codeLine="38" fill="#F1F1F1" height="136.0469" id="pg_utils.pg_model.base.LabeledSubCollection" rx="2.5" ry="2.5" style="stroke:#181818;stroke-width:0.5;" width="170" x="7" y="805"/><ellipse cx="22" cy="821" fill="#ADD1B2" rx="11" ry="11" style="stroke:#181818;stroke-width:1.0;"/><path d="M24.7656,816.875 Q24.9219,816.6563 25.1094,816.5469 Q25.2969,816.4375 25.5156,816.4375 Q25.8906,816.4375 26.125,816.6953 Q26.3594,816.9531 26.3594,817.5625 L26.3594,819.0156 Q26.3594,819.625 26.125,819.8906 Q25.8906,820.1563 25.5156,820.1563 Q25.1719,820.1563 24.9688,819.9531 Q24.7656,819.7656 24.6563,819.25 Q24.6094,818.8906 24.4219,818.7031 Q24.0938,818.3281 23.4844,818.1094 Q22.875,817.8906 22.25,817.8906 Q21.4844,817.8906 20.8516,818.2188 Q20.2188,818.5469 19.7266,819.2969 Q19.2344,820.0469 19.2344,821.0781 L19.2344,822.1719 Q19.2344,823.4063 20.125,824.2266 Q21.0156,825.0469 22.6094,825.0469 Q23.5469,825.0469 24.2031,824.7969 Q24.5938,824.6406 25.0156,824.2031 Q25.2813,823.9375 25.4297,823.8594 Q25.5781,823.7813 25.7813,823.7813 Q26.1094,823.7813 26.3672,824.0391 Q26.625,824.2969 26.625,824.6406 Q26.625,824.9844 26.2813,825.3906 Q25.7813,825.9688 24.9844,826.2969 Q23.9063,826.75 22.6094,826.75 Q21.0938,826.75 19.8906,826.125 Q18.9063,825.625 18.2188,824.5547 Q17.5313,823.4844 17.5313,822.2031 L17.5313,821.0469 Q17.5313,819.7188 18.1484,818.5703 Q18.7656,817.4219 19.8594,816.8047 Q20.9531,816.1875 22.1875,816.1875 Q22.9219,816.1875 23.5703,816.3516 Q24.2188,816.5156 24.7656,816.875 Z " fill="#000000"/><text fill="#000000" font-family="sans-serif" font-size="14" lengthAdjust="spacing" textLength="138" x="36" y="826.7285">LabeledSubCollection</text><line style="stroke:#181818;stroke-width:0.5;" x1="8" x2="176" y1="837" y2="837"/><text fill="#000000" font-family="sans-serif" font-size="14" lengthAdjust="spacing" textLength="98" x="13" y="855.5332">base_collection</text><text fill="#000000" font-family="sans-serif" font-size="14" lengthAdjust="spacing" textLength="55" x="13" y="873.1426">iter_filter</text><text fill="#000000" font-family="sans-serif" font-size="14" lengthAdjust="spacing" textLength="63" x="13" y="890.752">iter_name</text><text fill="#000000" font-family="sans-serif" font-size="14" lengthAdjust="spacing" textLength="49" x="13" y="908.3613">n_fields</text><text fill="#000000" font-family="sans-serif" font-size="14" lengthAdjust="spacing" textLength="63" x="13" y="925.9707">n_iter : int</text><line style="stroke:#181818;stroke-width:0.5;" x1="8" x2="176" y1="933.0469" y2="933.0469"/></g><!--MD5=[dda1d092fd43db7073e19ce53cc21efc]
link pg_utils.pg_model.base.CollectionPG to pg_utils.pg_model.base.LabeledCollection--><g id="link_pg_utils.pg_model.base.CollectionPG_pg_utils.pg_model.base.LabeledCollection"><path codeLine="45" d="M92,548.06 C92,562.36 92,576.01 92,588.63 " fill="none" id="pg_utils.pg_model.base.CollectionPG-to-pg_utils.pg_model.base.LabeledCollection" style="stroke:#181818;stroke-width:1.0;"/><polygon fill="none" points="99,588.83,92,608.83,85,588.83,99,588.83" style="stroke:#181818;stroke-width:1.0;"/></g><!--MD5=[89539475c913562a5df6c0519710c391]
link pg_utils.pg_model.base.LabeledCollection to pg_utils.pg_model.base.LabeledSubCollection--><g id="link_pg_utils.pg_model.base.LabeledCollection_pg_utils.pg_model.base.LabeledSubCollection"><path codeLine="46" d="M92,727.17 C92,747.26 92,770.13 92,791.66 " fill="none" id="pg_utils.pg_model.base.LabeledCollection-to-pg_utils.pg_model.base.LabeledSubCollection" style="stroke:#181818;stroke-width:1.0;"/><polygon fill="none" points="92,804.87,96,798.87,92,792.87,88,798.87,92,804.87" style="stroke:#181818;stroke-width:1.0;"/><text fill="#000000" font-family="sans-serif" font-size="13" lengthAdjust="spacing" textLength="90" x="93" y="771.4951">base_collection</text></g><!--MD5=[2f1c6787138e2620ac914ff4f9dd1d1c]
@startuml classes_pg_model
set namespaceSeparator none
class "CollectionPG" as pg_utils.pg_model.base.CollectionPG {
  Bp_e
  Bp_m
  Bp_p
  Br_b
  Bs_e
  Bs_m
  Bs_p
  Bz_e
  Bz_m
  Bz_p
  Mpp
  Mpz
  Msp
  Mss
  Msz
  Psi
  dBp_dz_e
  dBs_dz_e
  pg_field_names : list
  zMpp
  zMsp
  zMss
  subset_B_bound()
  subset_B_bound_cyl()
  subset_B_equator()
  subset_mag()
  subset_moments()
  vorticity()
}
class "LabeledCollection" as pg_utils.pg_model.base.LabeledCollection {
  iter_filter
  iter_name
  n_fields
  n_iter : int
}
class "LabeledSubCollection" as pg_utils.pg_model.base.LabeledSubCollection {
  base_collection
  iter_filter
  iter_name
  n_fields
  n_iter : int
}
pg_utils.pg_model.base.CollectionPG - -|> pg_utils.pg_model.base.LabeledCollection
pg_utils.pg_model.base.LabeledCollection - -o pg_utils.pg_model.base.LabeledSubCollection : base_collection
@enduml

PlantUML version 1.2022.7(Mon Aug 22 19:01:30 CEST 2022)
(GPL source distribution)
Java Runtime: Java(TM) SE Runtime Environment
JVM: Java HotSpot(TM) Client VM
Default Encoding: Cp1252
Language: en
Country: US
--></g></svg>