<?xml version="1.0" encoding="UTF-8" standalone="no"?><svg xmlns="http://www.w3.org/2000/svg" xmlns:xlink="http://www.w3.org/1999/xlink" contentStyleType="text/css" height="614px" preserveAspectRatio="none" style="width:1820px;height:614px;background:#FFFFFF;" version="1.1" viewBox="0 0 1820 614" width="1820px" zoomAndPan="magnify"><defs/><g><!--MD5=[0e4bbca92205680652656dc015900722]
class pg_utils.sympy_supp.vector_calculus_3d.CartesianCoordinates3D--><g id="elem_pg_utils.sympy_supp.vector_calculus_3d.CartesianCoordinates3D"><rect codeLine="2" fill="#F1F1F1" height="136.0469" id="pg_utils.sympy_supp.vector_calculus_3d.CartesianCoordinates3D" rx="2.5" ry="2.5" style="stroke:#181818;stroke-width:0.5;" width="476" x="7" y="24.5"/><ellipse cx="162.75" cy="40.5" fill="#ADD1B2" rx="11" ry="11" style="stroke:#181818;stroke-width:1.0;"/><path d="M165.5156,36.375 Q165.6719,36.1563 165.8594,36.0469 Q166.0469,35.9375 166.2656,35.9375 Q166.6406,35.9375 166.875,36.1953 Q167.1094,36.4531 167.1094,37.0625 L167.1094,38.5156 Q167.1094,39.125 166.875,39.3906 Q166.6406,39.6563 166.2656,39.6563 Q165.9219,39.6563 165.7188,39.4531 Q165.5156,39.2656 165.4063,38.75 Q165.3594,38.3906 165.1719,38.2031 Q164.8438,37.8281 164.2344,37.6094 Q163.625,37.3906 163,37.3906 Q162.2344,37.3906 161.6016,37.7188 Q160.9688,38.0469 160.4766,38.7969 Q159.9844,39.5469 159.9844,40.5781 L159.9844,41.6719 Q159.9844,42.9063 160.875,43.7266 Q161.7656,44.5469 163.3594,44.5469 Q164.2969,44.5469 164.9531,44.2969 Q165.3438,44.1406 165.7656,43.7031 Q166.0313,43.4375 166.1797,43.3594 Q166.3281,43.2813 166.5313,43.2813 Q166.8594,43.2813 167.1172,43.5391 Q167.375,43.7969 167.375,44.1406 Q167.375,44.4844 167.0313,44.8906 Q166.5313,45.4688 165.7344,45.7969 Q164.6563,46.25 163.3594,46.25 Q161.8438,46.25 160.6406,45.625 Q159.6563,45.125 158.9688,44.0547 Q158.2813,42.9844 158.2813,41.7031 L158.2813,40.5469 Q158.2813,39.2188 158.8984,38.0703 Q159.5156,36.9219 160.6094,36.3047 Q161.7031,35.6875 162.9375,35.6875 Q163.6719,35.6875 164.3203,35.8516 Q164.9688,36.0156 165.5156,36.375 Z " fill="#000000"/><text fill="#000000" font-family="sans-serif" font-size="14" lengthAdjust="spacing" textLength="156" x="183.25" y="46.2285">CartesianCoordinates3D</text><line style="stroke:#181818;stroke-width:0.5;" x1="8" x2="482" y1="56.5" y2="56.5"/><line style="stroke:#181818;stroke-width:0.5;" x1="8" x2="482" y1="64.5" y2="64.5"/><text fill="#000000" font-family="sans-serif" font-size="14" lengthAdjust="spacing" textLength="91" x="13" y="83.0332">curl(vector_in)</text><text fill="#000000" font-family="sans-serif" font-size="14" lengthAdjust="spacing" textLength="86" x="13" y="100.6426">div(vector_in)</text><text fill="#000000" font-family="sans-serif" font-size="14" lengthAdjust="spacing" textLength="96" x="13" y="118.252">grad(scalar_in)</text><text fill="#000000" font-family="sans-serif" font-size="14" lengthAdjust="spacing" textLength="161" x="13" y="135.8613">laplacian(tensor_in, rank)</text><text fill="#000000" font-family="sans-serif" font-size="14" lengthAdjust="spacing" textLength="464" x="13" y="153.4707">transform_to(tensor_in, new_sys: OrthogonalCoordinates3D, coeffs_new)</text></g><!--MD5=[db0ee13ecc438b3486198ad38cbf9c79]
class pg_utils.sympy_supp.vector_calculus_3d.CylindricalCoordinates--><g id="elem_pg_utils.sympy_supp.vector_calculus_3d.CylindricalCoordinates"><rect codeLine="9" fill="#F1F1F1" height="136.0469" id="pg_utils.sympy_supp.vector_calculus_3d.CylindricalCoordinates" rx="2.5" ry="2.5" style="stroke:#181818;stroke-width:0.5;" width="630" x="518" y="24.5"/><ellipse cx="757.75" cy="40.5" fill="#ADD1B2" rx="11" ry="11" style="stroke:#181818;stroke-width:1.0;"/><path d="M760.5156,36.375 Q760.6719,36.1563 760.8594,36.0469 Q761.0469,35.9375 761.2656,35.9375 Q761.6406,35.9375 761.875,36.1953 Q762.1094,36.4531 762.1094,37.0625 L762.1094,38.5156 Q762.1094,39.125 761.875,39.3906 Q761.6406,39.6563 761.2656,39.6563 Q760.9219,39.6563 760.7188,39.4531 Q760.5156,39.2656 760.4063,38.75 Q760.3594,38.3906 760.1719,38.2031 Q759.8438,37.8281 759.2344,37.6094 Q758.625,37.3906 758,37.3906 Q757.2344,37.3906 756.6016,37.7188 Q755.9688,38.0469 755.4766,38.7969 Q754.9844,39.5469 754.9844,40.5781 L754.9844,41.6719 Q754.9844,42.9063 755.875,43.7266 Q756.7656,44.5469 758.3594,44.5469 Q759.2969,44.5469 759.9531,44.2969 Q760.3438,44.1406 760.7656,43.7031 Q761.0313,43.4375 761.1797,43.3594 Q761.3281,43.2813 761.5313,43.2813 Q761.8594,43.2813 762.1172,43.5391 Q762.375,43.7969 762.375,44.1406 Q762.375,44.4844 762.0313,44.8906 Q761.5313,45.4688 760.7344,45.7969 Q759.6563,46.25 758.3594,46.25 Q756.8438,46.25 755.6406,45.625 Q754.6563,45.125 753.9688,44.0547 Q753.2813,42.9844 753.2813,41.7031 L753.2813,40.5469 Q753.2813,39.2188 753.8984,38.0703 Q754.5156,36.9219 755.6094,36.3047 Q756.7031,35.6875 757.9375,35.6875 Q758.6719,35.6875 759.3203,35.8516 Q759.9688,36.0156 760.5156,36.375 Z " fill="#000000"/><text fill="#000000" font-family="sans-serif" font-size="14" lengthAdjust="spacing" textLength="142" x="778.25" y="46.2285">CylindricalCoordinates</text><line style="stroke:#181818;stroke-width:0.5;" x1="519" x2="1147" y1="56.5" y2="56.5"/><line style="stroke:#181818;stroke-width:0.5;" x1="519" x2="1147" y1="64.5" y2="64.5"/><text fill="#000000" font-family="sans-serif" font-size="14" lengthAdjust="spacing" textLength="91" x="524" y="83.0332">curl(vector_in)</text><text fill="#000000" font-family="sans-serif" font-size="14" lengthAdjust="spacing" textLength="86" x="524" y="100.6426">div(vector_in)</text><text fill="#000000" font-family="sans-serif" font-size="14" lengthAdjust="spacing" textLength="96" x="524" y="118.252">grad(scalar_in)</text><text fill="#000000" font-family="sans-serif" font-size="14" lengthAdjust="spacing" textLength="161" x="524" y="135.8613">laplacian(tensor_in, rank)</text><text fill="#000000" font-family="sans-serif" font-size="14" lengthAdjust="spacing" textLength="618" x="524" y="153.4707">transform_to(v_in, new_sys: OrthogonalCoordinates3D, coeffs_new) -&gt; OrthogonalCoordinates3D</text></g><!--MD5=[cf18a5060fed265324846f8dd126e446]
class pg_utils.sympy_supp.vector_calculus_3d.OrthogonalCoordinates3D--><g id="elem_pg_utils.sympy_supp.vector_calculus_3d.OrthogonalCoordinates3D"><rect codeLine="16" fill="#F1F1F1" height="153.6563" id="pg_utils.sympy_supp.vector_calculus_3d.OrthogonalCoordinates3D" rx="2.5" ry="2.5" style="stroke:#181818;stroke-width:0.5;" width="482" x="592" y="239"/><ellipse cx="745.75" cy="255" fill="#ADD1B2" rx="11" ry="11" style="stroke:#181818;stroke-width:1.0;"/><path d="M748.5156,250.875 Q748.6719,250.6563 748.8594,250.5469 Q749.0469,250.4375 749.2656,250.4375 Q749.6406,250.4375 749.875,250.6953 Q750.1094,250.9531 750.1094,251.5625 L750.1094,253.0156 Q750.1094,253.625 749.875,253.8906 Q749.6406,254.1563 749.2656,254.1563 Q748.9219,254.1563 748.7188,253.9531 Q748.5156,253.7656 748.4063,253.25 Q748.3594,252.8906 748.1719,252.7031 Q747.8438,252.3281 747.2344,252.1094 Q746.625,251.8906 746,251.8906 Q745.2344,251.8906 744.6016,252.2188 Q743.9688,252.5469 743.4766,253.2969 Q742.9844,254.0469 742.9844,255.0781 L742.9844,256.1719 Q742.9844,257.4063 743.875,258.2266 Q744.7656,259.0469 746.3594,259.0469 Q747.2969,259.0469 747.9531,258.7969 Q748.3438,258.6406 748.7656,258.2031 Q749.0313,257.9375 749.1797,257.8594 Q749.3281,257.7813 749.5313,257.7813 Q749.8594,257.7813 750.1172,258.0391 Q750.375,258.2969 750.375,258.6406 Q750.375,258.9844 750.0313,259.3906 Q749.5313,259.9688 748.7344,260.2969 Q747.6563,260.75 746.3594,260.75 Q744.8438,260.75 743.6406,260.125 Q742.6563,259.625 741.9688,258.5547 Q741.2813,257.4844 741.2813,256.2031 L741.2813,255.0469 Q741.2813,253.7188 741.8984,252.5703 Q742.5156,251.4219 743.6094,250.8047 Q744.7031,250.1875 745.9375,250.1875 Q746.6719,250.1875 747.3203,250.3516 Q747.9688,250.5156 748.5156,250.875 Z " fill="#000000"/><text fill="#000000" font-family="sans-serif" font-size="14" lengthAdjust="spacing" textLength="166" x="766.25" y="260.7285">OrthogonalCoordinates3D</text><line style="stroke:#181818;stroke-width:0.5;" x1="593" x2="1073" y1="271" y2="271"/><text fill="#000000" font-family="sans-serif" font-size="14" lengthAdjust="spacing" textLength="43" x="598" y="289.5332">coords</text><line style="stroke:#181818;stroke-width:0.5;" x1="593" x2="1073" y1="296.6094" y2="296.6094"/><text fill="#000000" font-family="sans-serif" font-size="14" font-style="italic" lengthAdjust="spacing" textLength="90" x="598" y="315.1426">curl(vector_in)</text><text fill="#000000" font-family="sans-serif" font-size="14" font-style="italic" lengthAdjust="spacing" textLength="84" x="598" y="332.752">div(vector_in)</text><text fill="#000000" font-family="sans-serif" font-size="14" font-style="italic" lengthAdjust="spacing" textLength="96" x="598" y="350.3613">grad(scalar_in)</text><text fill="#000000" font-family="sans-serif" font-size="14" font-style="italic" lengthAdjust="spacing" textLength="162" x="598" y="367.9707">laplacian(tensor_in, rank)</text><text fill="#000000" font-family="sans-serif" font-size="14" font-style="italic" lengthAdjust="spacing" textLength="470" x="598" y="385.5801">transform_to(tensor_in, new_sys: 'OrthogonalCoordinates3D', coeffs_new)</text></g><!--MD5=[cf71c5464b28464f26a4bb395817fbc6]
class pg_utils.sympy_supp.vector_calculus_3d.Scalar3D--><g id="elem_pg_utils.sympy_supp.vector_calculus_3d.Scalar3D"><rect codeLine="24" fill="#F1F1F1" height="100.8281" id="pg_utils.sympy_supp.vector_calculus_3d.Scalar3D" rx="2.5" ry="2.5" style="stroke:#181818;stroke-width:0.5;" width="414" x="1109" y="265.5"/><ellipse cx="1282.75" cy="281.5" fill="#ADD1B2" rx="11" ry="11" style="stroke:#181818;stroke-width:1.0;"/><path d="M1285.5156,277.375 Q1285.6719,277.1563 1285.8594,277.0469 Q1286.0469,276.9375 1286.2656,276.9375 Q1286.6406,276.9375 1286.875,277.1953 Q1287.1094,277.4531 1287.1094,278.0625 L1287.1094,279.5156 Q1287.1094,280.125 1286.875,280.3906 Q1286.6406,280.6563 1286.2656,280.6563 Q1285.9219,280.6563 1285.7188,280.4531 Q1285.5156,280.2656 1285.4063,279.75 Q1285.3594,279.3906 1285.1719,279.2031 Q1284.8438,278.8281 1284.2344,278.6094 Q1283.625,278.3906 1283,278.3906 Q1282.2344,278.3906 1281.6016,278.7188 Q1280.9688,279.0469 1280.4766,279.7969 Q1279.9844,280.5469 1279.9844,281.5781 L1279.9844,282.6719 Q1279.9844,283.9063 1280.875,284.7266 Q1281.7656,285.5469 1283.3594,285.5469 Q1284.2969,285.5469 1284.9531,285.2969 Q1285.3438,285.1406 1285.7656,284.7031 Q1286.0313,284.4375 1286.1797,284.3594 Q1286.3281,284.2813 1286.5313,284.2813 Q1286.8594,284.2813 1287.1172,284.5391 Q1287.375,284.7969 1287.375,285.1406 Q1287.375,285.4844 1287.0313,285.8906 Q1286.5313,286.4688 1285.7344,286.7969 Q1284.6563,287.25 1283.3594,287.25 Q1281.8438,287.25 1280.6406,286.625 Q1279.6563,286.125 1278.9688,285.0547 Q1278.2813,283.9844 1278.2813,282.7031 L1278.2813,281.5469 Q1278.2813,280.2188 1278.8984,279.0703 Q1279.5156,277.9219 1280.6094,277.3047 Q1281.7031,276.6875 1282.9375,276.6875 Q1283.6719,276.6875 1284.3203,276.8516 Q1284.9688,277.0156 1285.5156,277.375 Z " fill="#000000"/><text fill="#000000" font-family="sans-serif" font-size="14" lengthAdjust="spacing" textLength="58" x="1303.25" y="287.2285">Scalar3D</text><line style="stroke:#181818;stroke-width:0.5;" x1="1110" x2="1522" y1="297.5" y2="297.5"/><line style="stroke:#181818;stroke-width:0.5;" x1="1110" x2="1522" y1="305.5" y2="305.5"/><text fill="#000000" font-family="sans-serif" font-size="14" lengthAdjust="spacing" textLength="39" x="1115" y="324.0332">grad()</text><text fill="#000000" font-family="sans-serif" font-size="14" lengthAdjust="spacing" textLength="66" x="1115" y="341.6426">laplacian()</text><text fill="#000000" font-family="sans-serif" font-size="14" lengthAdjust="spacing" textLength="402" x="1115" y="359.252">transform_to(new_sys: OrthogonalCoordinates3D) -&gt; Tensor3D</text></g><!--MD5=[e4f379496a7126121ab6f0bcae4a6c2b]
class pg_utils.sympy_supp.vector_calculus_3d.SphericalCoordinates--><g id="elem_pg_utils.sympy_supp.vector_calculus_3d.SphericalCoordinates"><rect codeLine="29" fill="#F1F1F1" height="171.2656" id="pg_utils.sympy_supp.vector_calculus_3d.SphericalCoordinates" rx="2.5" ry="2.5" style="stroke:#181818;stroke-width:0.5;" width="630" x="1183" y="7"/><ellipse cx="1425.75" cy="23" fill="#ADD1B2" rx="11" ry="11" style="stroke:#181818;stroke-width:1.0;"/><path d="M1428.5156,18.875 Q1428.6719,18.6563 1428.8594,18.5469 Q1429.0469,18.4375 1429.2656,18.4375 Q1429.6406,18.4375 1429.875,18.6953 Q1430.1094,18.9531 1430.1094,19.5625 L1430.1094,21.0156 Q1430.1094,21.625 1429.875,21.8906 Q1429.6406,22.1563 1429.2656,22.1563 Q1428.9219,22.1563 1428.7188,21.9531 Q1428.5156,21.7656 1428.4063,21.25 Q1428.3594,20.8906 1428.1719,20.7031 Q1427.8438,20.3281 1427.2344,20.1094 Q1426.625,19.8906 1426,19.8906 Q1425.2344,19.8906 1424.6016,20.2188 Q1423.9688,20.5469 1423.4766,21.2969 Q1422.9844,22.0469 1422.9844,23.0781 L1422.9844,24.1719 Q1422.9844,25.4063 1423.875,26.2266 Q1424.7656,27.0469 1426.3594,27.0469 Q1427.2969,27.0469 1427.9531,26.7969 Q1428.3438,26.6406 1428.7656,26.2031 Q1429.0313,25.9375 1429.1797,25.8594 Q1429.3281,25.7813 1429.5313,25.7813 Q1429.8594,25.7813 1430.1172,26.0391 Q1430.375,26.2969 1430.375,26.6406 Q1430.375,26.9844 1430.0313,27.3906 Q1429.5313,27.9688 1428.7344,28.2969 Q1427.6563,28.75 1426.3594,28.75 Q1424.8438,28.75 1423.6406,28.125 Q1422.6563,27.625 1421.9688,26.5547 Q1421.2813,25.4844 1421.2813,24.2031 L1421.2813,23.0469 Q1421.2813,21.7188 1421.8984,20.5703 Q1422.5156,19.4219 1423.6094,18.8047 Q1424.7031,18.1875 1425.9375,18.1875 Q1426.6719,18.1875 1427.3203,18.3516 Q1427.9688,18.5156 1428.5156,18.875 Z " fill="#000000"/><text fill="#000000" font-family="sans-serif" font-size="14" lengthAdjust="spacing" textLength="136" x="1446.25" y="28.7285">SphericalCoordinates</text><line style="stroke:#181818;stroke-width:0.5;" x1="1184" x2="1812" y1="39" y2="39"/><line style="stroke:#181818;stroke-width:0.5;" x1="1184" x2="1812" y1="47" y2="47"/><text fill="#000000" font-family="sans-serif" font-size="14" lengthAdjust="spacing" textLength="91" x="1189" y="65.5332">curl(vector_in)</text><text fill="#000000" font-family="sans-serif" font-size="14" lengthAdjust="spacing" textLength="86" x="1189" y="83.1426">div(vector_in)</text><text fill="#000000" font-family="sans-serif" font-size="14" lengthAdjust="spacing" textLength="96" x="1189" y="100.752">grad(scalar_in)</text><text fill="#000000" font-family="sans-serif" font-size="14" lengthAdjust="spacing" textLength="161" x="1189" y="118.3613">laplacian(tensor_in, rank)</text><text fill="#000000" font-family="sans-serif" font-size="14" lengthAdjust="spacing" textLength="141" x="1189" y="135.9707">surface_div(vector_in)</text><text fill="#000000" font-family="sans-serif" font-size="14" font-style="italic" lengthAdjust="spacing" textLength="151" x="1189" y="153.5801">surface_grad(scalar_in)</text><text fill="#000000" font-family="sans-serif" font-size="14" lengthAdjust="spacing" textLength="618" x="1189" y="171.1895">transform_to(v_in, new_sys: OrthogonalCoordinates3D, coeffs_new) -&gt; OrthogonalCoordinates3D</text></g><!--MD5=[c946b763e60fcc6a9785786f411e9ac0]
class pg_utils.sympy_supp.vector_calculus_3d.Tensor3D--><g id="elem_pg_utils.sympy_supp.vector_calculus_3d.Tensor3D"><rect codeLine="38" fill="#F1F1F1" height="136.0469" id="pg_utils.sympy_supp.vector_calculus_3d.Tensor3D" rx="2.5" ry="2.5" style="stroke:#181818;stroke-width:0.5;" width="420" x="1106" y="471"/><ellipse cx="1280.25" cy="487" fill="#ADD1B2" rx="11" ry="11" style="stroke:#181818;stroke-width:1.0;"/><path d="M1283.0156,482.875 Q1283.1719,482.6563 1283.3594,482.5469 Q1283.5469,482.4375 1283.7656,482.4375 Q1284.1406,482.4375 1284.375,482.6953 Q1284.6094,482.9531 1284.6094,483.5625 L1284.6094,485.0156 Q1284.6094,485.625 1284.375,485.8906 Q1284.1406,486.1563 1283.7656,486.1563 Q1283.4219,486.1563 1283.2188,485.9531 Q1283.0156,485.7656 1282.9063,485.25 Q1282.8594,484.8906 1282.6719,484.7031 Q1282.3438,484.3281 1281.7344,484.1094 Q1281.125,483.8906 1280.5,483.8906 Q1279.7344,483.8906 1279.1016,484.2188 Q1278.4688,484.5469 1277.9766,485.2969 Q1277.4844,486.0469 1277.4844,487.0781 L1277.4844,488.1719 Q1277.4844,489.4063 1278.375,490.2266 Q1279.2656,491.0469 1280.8594,491.0469 Q1281.7969,491.0469 1282.4531,490.7969 Q1282.8438,490.6406 1283.2656,490.2031 Q1283.5313,489.9375 1283.6797,489.8594 Q1283.8281,489.7813 1284.0313,489.7813 Q1284.3594,489.7813 1284.6172,490.0391 Q1284.875,490.2969 1284.875,490.6406 Q1284.875,490.9844 1284.5313,491.3906 Q1284.0313,491.9688 1283.2344,492.2969 Q1282.1563,492.75 1280.8594,492.75 Q1279.3438,492.75 1278.1406,492.125 Q1277.1563,491.625 1276.4688,490.5547 Q1275.7813,489.4844 1275.7813,488.2031 L1275.7813,487.0469 Q1275.7813,485.7188 1276.3984,484.5703 Q1277.0156,483.4219 1278.1094,482.8047 Q1279.2031,482.1875 1280.4375,482.1875 Q1281.1719,482.1875 1281.8203,482.3516 Q1282.4688,482.5156 1283.0156,482.875 Z " fill="#000000"/><text fill="#000000" font-family="sans-serif" font-size="14" lengthAdjust="spacing" textLength="63" x="1300.75" y="492.7285">Tensor3D</text><line style="stroke:#181818;stroke-width:0.5;" x1="1107" x2="1525" y1="503" y2="503"/><text fill="#000000" font-family="sans-serif" font-size="14" lengthAdjust="spacing" textLength="65" x="1112" y="521.5332">coord_sys</text><text fill="#000000" font-family="sans-serif" font-size="14" lengthAdjust="spacing" textLength="57" x="1112" y="539.1426">ndim : int</text><text fill="#000000" font-family="sans-serif" font-size="14" lengthAdjust="spacing" textLength="55" x="1112" y="556.752">rank : int</text><text fill="#000000" font-family="sans-serif" font-size="14" lengthAdjust="spacing" textLength="40" x="1112" y="574.3613">tensor</text><line style="stroke:#181818;stroke-width:0.5;" x1="1107" x2="1525" y1="581.4375" y2="581.4375"/><text fill="#000000" font-family="sans-serif" font-size="14" lengthAdjust="spacing" textLength="408" x="1112" y="599.9707">transform_to(new_sys: OrthogonalCoordinates3D) -&gt; 'Tensor3D'</text></g><!--MD5=[8471d3a85aac21c79dbebdb9e8a7471a]
class pg_utils.sympy_supp.vector_calculus_3d.Vector3D--><g id="elem_pg_utils.sympy_supp.vector_calculus_3d.Vector3D"><rect codeLine="45" fill="#F1F1F1" height="100.8281" id="pg_utils.sympy_supp.vector_calculus_3d.Vector3D" rx="2.5" ry="2.5" style="stroke:#181818;stroke-width:0.5;" width="91" x="1558.5" y="265.5"/><ellipse cx="1573.5" cy="281.5" fill="#ADD1B2" rx="11" ry="11" style="stroke:#181818;stroke-width:1.0;"/><path d="M1576.2656,277.375 Q1576.4219,277.1563 1576.6094,277.0469 Q1576.7969,276.9375 1577.0156,276.9375 Q1577.3906,276.9375 1577.625,277.1953 Q1577.8594,277.4531 1577.8594,278.0625 L1577.8594,279.5156 Q1577.8594,280.125 1577.625,280.3906 Q1577.3906,280.6563 1577.0156,280.6563 Q1576.6719,280.6563 1576.4688,280.4531 Q1576.2656,280.2656 1576.1563,279.75 Q1576.1094,279.3906 1575.9219,279.2031 Q1575.5938,278.8281 1574.9844,278.6094 Q1574.375,278.3906 1573.75,278.3906 Q1572.9844,278.3906 1572.3516,278.7188 Q1571.7188,279.0469 1571.2266,279.7969 Q1570.7344,280.5469 1570.7344,281.5781 L1570.7344,282.6719 Q1570.7344,283.9063 1571.625,284.7266 Q1572.5156,285.5469 1574.1094,285.5469 Q1575.0469,285.5469 1575.7031,285.2969 Q1576.0938,285.1406 1576.5156,284.7031 Q1576.7813,284.4375 1576.9297,284.3594 Q1577.0781,284.2813 1577.2813,284.2813 Q1577.6094,284.2813 1577.8672,284.5391 Q1578.125,284.7969 1578.125,285.1406 Q1578.125,285.4844 1577.7813,285.8906 Q1577.2813,286.4688 1576.4844,286.7969 Q1575.4063,287.25 1574.1094,287.25 Q1572.5938,287.25 1571.3906,286.625 Q1570.4063,286.125 1569.7188,285.0547 Q1569.0313,283.9844 1569.0313,282.7031 L1569.0313,281.5469 Q1569.0313,280.2188 1569.6484,279.0703 Q1570.2656,277.9219 1571.3594,277.3047 Q1572.4531,276.6875 1573.6875,276.6875 Q1574.4219,276.6875 1575.0703,276.8516 Q1575.7188,277.0156 1576.2656,277.375 Z " fill="#000000"/><text fill="#000000" font-family="sans-serif" font-size="14" lengthAdjust="spacing" textLength="59" x="1587.5" y="287.2285">Vector3D</text><line style="stroke:#181818;stroke-width:0.5;" x1="1559.5" x2="1648.5" y1="297.5" y2="297.5"/><line style="stroke:#181818;stroke-width:0.5;" x1="1559.5" x2="1648.5" y1="305.5" y2="305.5"/><text fill="#000000" font-family="sans-serif" font-size="14" lengthAdjust="spacing" textLength="33" x="1564.5" y="324.0332">curl()</text><text fill="#000000" font-family="sans-serif" font-size="14" lengthAdjust="spacing" textLength="28" x="1564.5" y="341.6426">div()</text><text fill="#000000" font-family="sans-serif" font-size="14" lengthAdjust="spacing" textLength="66" x="1564.5" y="359.252">laplacian()</text></g><!--MD5=[44a406536bd93deac4dc891e566d3a00]
link pg_utils.sympy_supp.vector_calculus_3d.CartesianCoordinates3D to pg_utils.sympy_supp.vector_calculus_3d.OrthogonalCoordinates3D--><g id="link_pg_utils.sympy_supp.vector_calculus_3d.CartesianCoordinates3D_pg_utils.sympy_supp.vector_calculus_3d.OrthogonalCoordinates3D"><path codeLine="50" d="M423.02,160.56 C482.65,183.02 549.86,208.34 612.35,231.88 " fill="none" id="pg_utils.sympy_supp.vector_calculus_3d.CartesianCoordinates3D-to-pg_utils.sympy_supp.vector_calculus_3d.OrthogonalCoordinates3D" style="stroke:#181818;stroke-width:1.0;"/><polygon fill="none" points="614.89,225.36,631.14,238.96,609.96,238.46,614.89,225.36" style="stroke:#181818;stroke-width:1.0;"/></g><!--MD5=[0b5cf24d61da7627c443c1b6694e2b6c]
link pg_utils.sympy_supp.vector_calculus_3d.CylindricalCoordinates to pg_utils.sympy_supp.vector_calculus_3d.OrthogonalCoordinates3D--><g id="link_pg_utils.sympy_supp.vector_calculus_3d.CylindricalCoordinates_pg_utils.sympy_supp.vector_calculus_3d.OrthogonalCoordinates3D"><path codeLine="51" d="M833,160.56 C833,178.89 833,199.13 833,218.75 " fill="none" id="pg_utils.sympy_supp.vector_calculus_3d.CylindricalCoordinates-to-pg_utils.sympy_supp.vector_calculus_3d.OrthogonalCoordinates3D" style="stroke:#181818;stroke-width:1.0;"/><polygon fill="none" points="840,218.86,833,238.86,826,218.86,840,218.86" style="stroke:#181818;stroke-width:1.0;"/></g><!--MD5=[d1532840a56dcc738d6a228be26b5bba]
link pg_utils.sympy_supp.vector_calculus_3d.Scalar3D to pg_utils.sympy_supp.vector_calculus_3d.Tensor3D--><g id="link_pg_utils.sympy_supp.vector_calculus_3d.Scalar3D_pg_utils.sympy_supp.vector_calculus_3d.Tensor3D"><path codeLine="52" d="M1316,366.6 C1316,391.38 1316,422.1 1316,450.67 " fill="none" id="pg_utils.sympy_supp.vector_calculus_3d.Scalar3D-to-pg_utils.sympy_supp.vector_calculus_3d.Tensor3D" style="stroke:#181818;stroke-width:1.0;"/><polygon fill="none" points="1323,450.97,1316,470.97,1309,450.97,1323,450.97" style="stroke:#181818;stroke-width:1.0;"/></g><!--MD5=[397a631c72270c1dcd5c8cd744136ef1]
link pg_utils.sympy_supp.vector_calculus_3d.SphericalCoordinates to pg_utils.sympy_supp.vector_calculus_3d.OrthogonalCoordinates3D--><g id="link_pg_utils.sympy_supp.vector_calculus_3d.SphericalCoordinates_pg_utils.sympy_supp.vector_calculus_3d.OrthogonalCoordinates3D"><path codeLine="53" d="M1244.22,178.03 C1190.52,195.92 1133.91,214.77 1080.45,232.58 " fill="none" id="pg_utils.sympy_supp.vector_calculus_3d.SphericalCoordinates-to-pg_utils.sympy_supp.vector_calculus_3d.OrthogonalCoordinates3D" style="stroke:#181818;stroke-width:1.0;"/><polygon fill="none" points="1082.48,239.28,1061.29,238.96,1078.05,226,1082.48,239.28" style="stroke:#181818;stroke-width:1.0;"/></g><!--MD5=[5bc8eab1faf1204cff5ec16a1d488687]
link pg_utils.sympy_supp.vector_calculus_3d.Vector3D to pg_utils.sympy_supp.vector_calculus_3d.Tensor3D--><g id="link_pg_utils.sympy_supp.vector_calculus_3d.Vector3D_pg_utils.sympy_supp.vector_calculus_3d.Tensor3D"><path codeLine="54" d="M1566.42,366.85 C1558.5,376.02 1549.85,385.15 1541,393 C1513.94,417 1482.53,439.81 1451.93,459.94 " fill="none" id="pg_utils.sympy_supp.vector_calculus_3d.Vector3D-to-pg_utils.sympy_supp.vector_calculus_3d.Tensor3D" style="stroke:#181818;stroke-width:1.0;"/><polygon fill="none" points="1455.64,465.87,1435.04,470.83,1448.05,454.11,1455.64,465.87" style="stroke:#181818;stroke-width:1.0;"/></g><!--MD5=[4f95e16e480e2b0984c2e7b361d30fa8]
link pg_utils.sympy_supp.vector_calculus_3d.OrthogonalCoordinates3D to pg_utils.sympy_supp.vector_calculus_3d.Tensor3D--><g id="link_pg_utils.sympy_supp.vector_calculus_3d.OrthogonalCoordinates3D_pg_utils.sympy_supp.vector_calculus_3d.Tensor3D"><path codeLine="55" d="M999.22,393.06 C1050.38,416.46 1106.54,442.16 1157.19,465.33 " fill="none" id="pg_utils.sympy_supp.vector_calculus_3d.OrthogonalCoordinates3D-to-pg_utils.sympy_supp.vector_calculus_3d.Tensor3D" style="stroke:#181818;stroke-width:1.0;"/><polygon fill="none" points="1169.26,470.86,1165.4692,464.7257,1158.3487,465.8656,1162.1396,471.9999,1169.26,470.86" style="stroke:#181818;stroke-width:1.0;"/><text fill="#000000" font-family="sans-serif" font-size="13" lengthAdjust="spacing" textLength="60" x="1105" y="437.4951">coord_sys</text></g><!--MD5=[72727324c68ad293220dda4d981fa04c]
@startuml classes_vector_calculus
set namespaceSeparator none
class "CartesianCoordinates3D" as pg_utils.sympy_supp.vector_calculus_3d.CartesianCoordinates3D {
  curl(vector_in)
  div(vector_in)
  grad(scalar_in)
  laplacian(tensor_in, rank)
  transform_to(tensor_in, new_sys: OrthogonalCoordinates3D, coeffs_new)
}
class "CylindricalCoordinates" as pg_utils.sympy_supp.vector_calculus_3d.CylindricalCoordinates {
  curl(vector_in)
  div(vector_in)
  grad(scalar_in)
  laplacian(tensor_in, rank)
  transform_to(v_in, new_sys: OrthogonalCoordinates3D, coeffs_new) -> OrthogonalCoordinates3D
}
class "OrthogonalCoordinates3D" as pg_utils.sympy_supp.vector_calculus_3d.OrthogonalCoordinates3D {
  coords
  {abstract}curl(vector_in)
  {abstract}div(vector_in)
  {abstract}grad(scalar_in)
  {abstract}laplacian(tensor_in, rank)
  {abstract}transform_to(tensor_in, new_sys: 'OrthogonalCoordinates3D', coeffs_new)
}
class "Scalar3D" as pg_utils.sympy_supp.vector_calculus_3d.Scalar3D {
  grad()
  laplacian()
  transform_to(new_sys: OrthogonalCoordinates3D) -> Tensor3D
}
class "SphericalCoordinates" as pg_utils.sympy_supp.vector_calculus_3d.SphericalCoordinates {
  curl(vector_in)
  div(vector_in)
  grad(scalar_in)
  laplacian(tensor_in, rank)
  surface_div(vector_in)
  {abstract}surface_grad(scalar_in)
  transform_to(v_in, new_sys: OrthogonalCoordinates3D, coeffs_new) -> OrthogonalCoordinates3D
}
class "Tensor3D" as pg_utils.sympy_supp.vector_calculus_3d.Tensor3D {
  coord_sys
  ndim : int
  rank : int
  tensor
  transform_to(new_sys: OrthogonalCoordinates3D) -> 'Tensor3D'
}
class "Vector3D" as pg_utils.sympy_supp.vector_calculus_3d.Vector3D {
  curl()
  div()
  laplacian()
}
pg_utils.sympy_supp.vector_calculus_3d.CartesianCoordinates3D - -|> pg_utils.sympy_supp.vector_calculus_3d.OrthogonalCoordinates3D
pg_utils.sympy_supp.vector_calculus_3d.CylindricalCoordinates - -|> pg_utils.sympy_supp.vector_calculus_3d.OrthogonalCoordinates3D
pg_utils.sympy_supp.vector_calculus_3d.Scalar3D - -|> pg_utils.sympy_supp.vector_calculus_3d.Tensor3D
pg_utils.sympy_supp.vector_calculus_3d.SphericalCoordinates - -|> pg_utils.sympy_supp.vector_calculus_3d.OrthogonalCoordinates3D
pg_utils.sympy_supp.vector_calculus_3d.Vector3D - -|> pg_utils.sympy_supp.vector_calculus_3d.Tensor3D
pg_utils.sympy_supp.vector_calculus_3d.OrthogonalCoordinates3D - -o pg_utils.sympy_supp.vector_calculus_3d.Tensor3D : coord_sys
@enduml

PlantUML version 1.2022.7(Mon Aug 22 19:01:30 CEST 2022)
(GPL source distribution)
Java Runtime: Java(TM) SE Runtime Environment
JVM: Java HotSpot(TM) Client VM
Default Encoding: Cp1252
Language: en
Country: US
--></g></svg>