<?xml version="1.0" encoding="UTF-8" standalone="no"?><svg xmlns="http://www.w3.org/2000/svg" xmlns:xlink="http://www.w3.org/1999/xlink" contentStyleType="text/css" height="710px" preserveAspectRatio="none" style="width:1077px;height:710px;background:#FFFFFF;" version="1.1" viewBox="0 0 1077 710" width="1077px" zoomAndPan="magnify"><defs/><g><!--MD5=[0e4bbca92205680652656dc015900722]
class pg_utils.sympy_supp.vector_calculus_3d.CartesianCoordinates3D--><g id="elem_pg_utils.sympy_supp.vector_calculus_3d.CartesianCoordinates3D"><rect codeLine="5" fill="#F1F1F1" height="171.2656" id="pg_utils.sympy_supp.vector_calculus_3d.CartesianCoordinates3D" rx="2.5" ry="2.5" style="stroke:#181818;stroke-width:0.5;" width="307" x="7" y="24.5"/><ellipse cx="78.25" cy="40.5" fill="#ADD1B2" rx="11" ry="11" style="stroke:#181818;stroke-width:1.0;"/><path d="M81.0156,36.375 Q81.1719,36.1563 81.3594,36.0469 Q81.5469,35.9375 81.7656,35.9375 Q82.1406,35.9375 82.375,36.1953 Q82.6094,36.4531 82.6094,37.0625 L82.6094,38.5156 Q82.6094,39.125 82.375,39.3906 Q82.1406,39.6563 81.7656,39.6563 Q81.4219,39.6563 81.2188,39.4531 Q81.0156,39.2656 80.9063,38.75 Q80.8594,38.3906 80.6719,38.2031 Q80.3438,37.8281 79.7344,37.6094 Q79.125,37.3906 78.5,37.3906 Q77.7344,37.3906 77.1016,37.7188 Q76.4688,38.0469 75.9766,38.7969 Q75.4844,39.5469 75.4844,40.5781 L75.4844,41.6719 Q75.4844,42.9063 76.375,43.7266 Q77.2656,44.5469 78.8594,44.5469 Q79.7969,44.5469 80.4531,44.2969 Q80.8438,44.1406 81.2656,43.7031 Q81.5313,43.4375 81.6797,43.3594 Q81.8281,43.2813 82.0313,43.2813 Q82.3594,43.2813 82.6172,43.5391 Q82.875,43.7969 82.875,44.1406 Q82.875,44.4844 82.5313,44.8906 Q82.0313,45.4688 81.2344,45.7969 Q80.1563,46.25 78.8594,46.25 Q77.3438,46.25 76.1406,45.625 Q75.1563,45.125 74.4688,44.0547 Q73.7813,42.9844 73.7813,41.7031 L73.7813,40.5469 Q73.7813,39.2188 74.3984,38.0703 Q75.0156,36.9219 76.1094,36.3047 Q77.2031,35.6875 78.4375,35.6875 Q79.1719,35.6875 79.8203,35.8516 Q80.4688,36.0156 81.0156,36.375 Z " fill="#000000"/><text fill="#000000" font-family="sans-serif" font-size="14" lengthAdjust="spacing" textLength="156" x="98.75" y="46.2285">CartesianCoordinates3D</text><line style="stroke:#181818;stroke-width:0.5;" x1="8" x2="313" y1="56.5" y2="56.5"/><line style="stroke:#181818;stroke-width:0.5;" x1="8" x2="313" y1="64.5" y2="64.5"/><text fill="#000000" font-family="sans-serif" font-size="14" lengthAdjust="spacing" textLength="91" x="13" y="83.0332">curl(vector_in)</text><text fill="#000000" font-family="sans-serif" font-size="14" lengthAdjust="spacing" textLength="86" x="13" y="100.6426">div(vector_in)</text><text fill="#000000" font-family="sans-serif" font-size="14" lengthAdjust="spacing" textLength="96" x="13" y="118.252">grad(scalar_in)</text><text fill="#000000" font-family="sans-serif" font-size="14" lengthAdjust="spacing" textLength="161" x="13" y="135.8613">laplacian(tensor_in, rank)</text><text fill="#000000" font-family="sans-serif" font-size="14" lengthAdjust="spacing" textLength="148" x="13" y="153.4707">transform_to(tensor_in,</text><text fill="#000000" font-family="sans-serif" font-size="14" lengthAdjust="spacing" textLength="232" x="45" y="171.0801">new_sys: OrthogonalCoordinates3D,</text><text fill="#000000" font-family="sans-serif" font-size="14" lengthAdjust="spacing" textLength="263" x="45" y="188.6895">coeffs_new) -&gt; OrthogonalCoordinates3D</text></g><!--MD5=[db0ee13ecc438b3486198ad38cbf9c79]
class pg_utils.sympy_supp.vector_calculus_3d.CylindricalCoordinates--><g id="elem_pg_utils.sympy_supp.vector_calculus_3d.CylindricalCoordinates"><rect codeLine="12" fill="#F1F1F1" height="171.2656" id="pg_utils.sympy_supp.vector_calculus_3d.CylindricalCoordinates" rx="2.5" ry="2.5" style="stroke:#181818;stroke-width:0.5;" width="307" x="349" y="24.5"/><ellipse cx="427.25" cy="40.5" fill="#ADD1B2" rx="11" ry="11" style="stroke:#181818;stroke-width:1.0;"/><path d="M430.0156,36.375 Q430.1719,36.1563 430.3594,36.0469 Q430.5469,35.9375 430.7656,35.9375 Q431.1406,35.9375 431.375,36.1953 Q431.6094,36.4531 431.6094,37.0625 L431.6094,38.5156 Q431.6094,39.125 431.375,39.3906 Q431.1406,39.6563 430.7656,39.6563 Q430.4219,39.6563 430.2188,39.4531 Q430.0156,39.2656 429.9063,38.75 Q429.8594,38.3906 429.6719,38.2031 Q429.3438,37.8281 428.7344,37.6094 Q428.125,37.3906 427.5,37.3906 Q426.7344,37.3906 426.1016,37.7188 Q425.4688,38.0469 424.9766,38.7969 Q424.4844,39.5469 424.4844,40.5781 L424.4844,41.6719 Q424.4844,42.9063 425.375,43.7266 Q426.2656,44.5469 427.8594,44.5469 Q428.7969,44.5469 429.4531,44.2969 Q429.8438,44.1406 430.2656,43.7031 Q430.5313,43.4375 430.6797,43.3594 Q430.8281,43.2813 431.0313,43.2813 Q431.3594,43.2813 431.6172,43.5391 Q431.875,43.7969 431.875,44.1406 Q431.875,44.4844 431.5313,44.8906 Q431.0313,45.4688 430.2344,45.7969 Q429.1563,46.25 427.8594,46.25 Q426.3438,46.25 425.1406,45.625 Q424.1563,45.125 423.4688,44.0547 Q422.7813,42.9844 422.7813,41.7031 L422.7813,40.5469 Q422.7813,39.2188 423.3984,38.0703 Q424.0156,36.9219 425.1094,36.3047 Q426.2031,35.6875 427.4375,35.6875 Q428.1719,35.6875 428.8203,35.8516 Q429.4688,36.0156 430.0156,36.375 Z " fill="#000000"/><text fill="#000000" font-family="sans-serif" font-size="14" lengthAdjust="spacing" textLength="142" x="447.75" y="46.2285">CylindricalCoordinates</text><line style="stroke:#181818;stroke-width:0.5;" x1="350" x2="655" y1="56.5" y2="56.5"/><line style="stroke:#181818;stroke-width:0.5;" x1="350" x2="655" y1="64.5" y2="64.5"/><text fill="#000000" font-family="sans-serif" font-size="14" lengthAdjust="spacing" textLength="91" x="355" y="83.0332">curl(vector_in)</text><text fill="#000000" font-family="sans-serif" font-size="14" lengthAdjust="spacing" textLength="86" x="355" y="100.6426">div(vector_in)</text><text fill="#000000" font-family="sans-serif" font-size="14" lengthAdjust="spacing" textLength="96" x="355" y="118.252">grad(scalar_in)</text><text fill="#000000" font-family="sans-serif" font-size="14" lengthAdjust="spacing" textLength="161" x="355" y="135.8613">laplacian(tensor_in, rank)</text><text fill="#000000" font-family="sans-serif" font-size="14" lengthAdjust="spacing" textLength="115" x="355" y="153.4707">transform_to(v_in,</text><text fill="#000000" font-family="sans-serif" font-size="14" lengthAdjust="spacing" textLength="232" x="387" y="171.0801">new_sys: OrthogonalCoordinates3D,</text><text fill="#000000" font-family="sans-serif" font-size="14" lengthAdjust="spacing" textLength="263" x="387" y="188.6895">coeffs_new) -&gt; OrthogonalCoordinates3D</text></g><!--MD5=[e4f379496a7126121ab6f0bcae4a6c2b]
class pg_utils.sympy_supp.vector_calculus_3d.SphericalCoordinates--><g id="elem_pg_utils.sympy_supp.vector_calculus_3d.SphericalCoordinates"><rect codeLine="19" fill="#F1F1F1" height="206.4844" id="pg_utils.sympy_supp.vector_calculus_3d.SphericalCoordinates" rx="2.5" ry="2.5" style="stroke:#181818;stroke-width:0.5;" width="307" x="691" y="7"/><ellipse cx="772.25" cy="23" fill="#ADD1B2" rx="11" ry="11" style="stroke:#181818;stroke-width:1.0;"/><path d="M775.0156,18.875 Q775.1719,18.6563 775.3594,18.5469 Q775.5469,18.4375 775.7656,18.4375 Q776.1406,18.4375 776.375,18.6953 Q776.6094,18.9531 776.6094,19.5625 L776.6094,21.0156 Q776.6094,21.625 776.375,21.8906 Q776.1406,22.1563 775.7656,22.1563 Q775.4219,22.1563 775.2188,21.9531 Q775.0156,21.7656 774.9063,21.25 Q774.8594,20.8906 774.6719,20.7031 Q774.3438,20.3281 773.7344,20.1094 Q773.125,19.8906 772.5,19.8906 Q771.7344,19.8906 771.1016,20.2188 Q770.4688,20.5469 769.9766,21.2969 Q769.4844,22.0469 769.4844,23.0781 L769.4844,24.1719 Q769.4844,25.4063 770.375,26.2266 Q771.2656,27.0469 772.8594,27.0469 Q773.7969,27.0469 774.4531,26.7969 Q774.8438,26.6406 775.2656,26.2031 Q775.5313,25.9375 775.6797,25.8594 Q775.8281,25.7813 776.0313,25.7813 Q776.3594,25.7813 776.6172,26.0391 Q776.875,26.2969 776.875,26.6406 Q776.875,26.9844 776.5313,27.3906 Q776.0313,27.9688 775.2344,28.2969 Q774.1563,28.75 772.8594,28.75 Q771.3438,28.75 770.1406,28.125 Q769.1563,27.625 768.4688,26.5547 Q767.7813,25.4844 767.7813,24.2031 L767.7813,23.0469 Q767.7813,21.7188 768.3984,20.5703 Q769.0156,19.4219 770.1094,18.8047 Q771.2031,18.1875 772.4375,18.1875 Q773.1719,18.1875 773.8203,18.3516 Q774.4688,18.5156 775.0156,18.875 Z " fill="#000000"/><text fill="#000000" font-family="sans-serif" font-size="14" lengthAdjust="spacing" textLength="136" x="792.75" y="28.7285">SphericalCoordinates</text><line style="stroke:#181818;stroke-width:0.5;" x1="692" x2="997" y1="39" y2="39"/><line style="stroke:#181818;stroke-width:0.5;" x1="692" x2="997" y1="47" y2="47"/><text fill="#000000" font-family="sans-serif" font-size="14" lengthAdjust="spacing" textLength="91" x="697" y="65.5332">curl(vector_in)</text><text fill="#000000" font-family="sans-serif" font-size="14" lengthAdjust="spacing" textLength="86" x="697" y="83.1426">div(vector_in)</text><text fill="#000000" font-family="sans-serif" font-size="14" lengthAdjust="spacing" textLength="96" x="697" y="100.752">grad(scalar_in)</text><text fill="#000000" font-family="sans-serif" font-size="14" lengthAdjust="spacing" textLength="161" x="697" y="118.3613">laplacian(tensor_in, rank)</text><text fill="#000000" font-family="sans-serif" font-size="14" lengthAdjust="spacing" textLength="141" x="697" y="135.9707">surface_div(vector_in)</text><text fill="#000000" font-family="sans-serif" font-size="14" font-style="italic" lengthAdjust="spacing" textLength="151" x="697" y="153.5801">surface_grad(scalar_in)</text><text fill="#000000" font-family="sans-serif" font-size="14" lengthAdjust="spacing" textLength="115" x="697" y="171.1895">transform_to(v_in,</text><text fill="#000000" font-family="sans-serif" font-size="14" lengthAdjust="spacing" textLength="232" x="729" y="188.7988">new_sys: OrthogonalCoordinates3D,</text><text fill="#000000" font-family="sans-serif" font-size="14" lengthAdjust="spacing" textLength="263" x="729" y="206.4082">coeffs_new) -&gt; OrthogonalCoordinates3D</text></g><!--MD5=[cf18a5060fed265324846f8dd126e446]
class pg_utils.sympy_supp.vector_calculus_3d.OrthogonalCoordinates3D--><g id="elem_pg_utils.sympy_supp.vector_calculus_3d.OrthogonalCoordinates3D"><rect codeLine="28" fill="#F1F1F1" height="232.0938" id="pg_utils.sympy_supp.vector_calculus_3d.OrthogonalCoordinates3D" rx="2.5" ry="2.5" style="stroke:#181818;stroke-width:0.5;" width="286" x="359.5" y="274"/><ellipse cx="415.25" cy="290" fill="#A9DCDF" rx="11" ry="11" style="stroke:#181818;stroke-width:1.0;"/><path d="M417.4375,291.7656 L413.2969,291.7656 L412.875,292.7969 L413.2969,292.7969 Q413.9063,292.7969 414.1719,293.0313 Q414.4375,293.2656 414.4375,293.6563 Q414.4375,294.0313 414.1719,294.2656 Q413.9063,294.5 413.2969,294.5 L411,294.5 Q410.3906,294.5 410.1328,294.2656 Q409.875,294.0313 409.875,293.6406 Q409.875,293.2656 410.1484,293.0234 Q410.4219,292.7813 411.0469,292.7969 L413.7188,286.1406 L412.6094,286.1406 Q412,286.1406 411.7344,285.9063 Q411.4688,285.6719 411.4688,285.2813 Q411.4688,284.9063 411.7344,284.6719 Q412,284.4375 412.6094,284.4375 L416.2813,284.4375 L419.6719,292.7969 Q420.2656,292.7969 420.4531,292.9375 Q420.8438,293.2031 420.8438,293.6563 Q420.8438,294.0313 420.5859,294.2656 Q420.3281,294.5 419.7188,294.5 L417.4219,294.5 Q416.8125,294.5 416.5469,294.2656 Q416.2813,294.0313 416.2813,293.6406 Q416.2813,293.2656 416.5469,293.0313 Q416.8125,292.7969 417.4219,292.7969 L417.8438,292.7969 L417.4375,291.7656 Z M416.7188,290.0625 L415.3594,286.6875 L413.9844,290.0625 L416.7188,290.0625 Z " fill="#000000"/><text fill="#000000" font-family="sans-serif" font-size="14" font-style="italic" lengthAdjust="spacing" textLength="166" x="435.75" y="295.7285">OrthogonalCoordinates3D</text><line style="stroke:#181818;stroke-width:0.5;" x1="360.5" x2="644.5" y1="306" y2="306"/><text fill="#808080" font-family="sans-serif" font-size="14" lengthAdjust="spacing" textLength="227" x="365.5" y="324.5332">Indexable (implements __getitem__)</text><line style="stroke:#181818;stroke-width:1.0;" x1="360.5" x2="644.5" y1="331.6094" y2="331.6094"/><text fill="#000000" font-family="sans-serif" font-size="14" lengthAdjust="spacing" textLength="43" x="365.5" y="350.1426">coords</text><line style="stroke:#181818;stroke-width:1.0;" x1="360.5" x2="644.5" y1="357.2188" y2="357.2188"/><text fill="#000000" font-family="sans-serif" font-size="14" lengthAdjust="spacing" textLength="133" x="365.5" y="375.752">__getitem__(key: int)</text><text fill="#000000" font-family="sans-serif" font-size="14" font-style="italic" lengthAdjust="spacing" textLength="90" x="365.5" y="393.3613">curl(vector_in)</text><text fill="#000000" font-family="sans-serif" font-size="14" font-style="italic" lengthAdjust="spacing" textLength="84" x="365.5" y="410.9707">div(vector_in)</text><text fill="#000000" font-family="sans-serif" font-size="14" font-style="italic" lengthAdjust="spacing" textLength="96" x="365.5" y="428.5801">grad(scalar_in)</text><text fill="#000000" font-family="sans-serif" font-size="14" font-style="italic" lengthAdjust="spacing" textLength="162" x="365.5" y="446.1895">laplacian(tensor_in, rank)</text><text fill="#000000" font-family="sans-serif" font-size="14" font-style="italic" lengthAdjust="spacing" textLength="148" x="365.5" y="463.7988">transform_to(tensor_in,</text><text fill="#000000" font-family="sans-serif" font-size="14" font-style="italic" lengthAdjust="spacing" textLength="238" x="397.5" y="481.4082">new_sys: 'OrthogonalCoordinates3D',</text><text fill="#000000" font-family="sans-serif" font-size="14" font-style="italic" lengthAdjust="spacing" textLength="76" x="397.5" y="499.0176">coeffs_new)</text></g><g id="elem_GMN6"><path d="M153,368.5 L153,411.2031 A0,0 0 0 0 153,411.2031 L324,411.2031 A0,0 0 0 0 324,411.2031 L324,394 L359.29,390 L324,386 L324,378.5 L314,368.5 L153,368.5 A0,0 0 0 0 153,368.5 " fill="#FEFFDD" style="stroke:#181818;stroke-width:0.5;"/><path d="M314,368.5 L314,378.5 L324,378.5 L314,368.5 " fill="#FEFFDD" style="stroke:#181818;stroke-width:0.5;"/><text fill="#000000" font-family="sans-serif" font-size="13" lengthAdjust="spacing" textLength="55" x="159" y="386.9951">Indexable</text><text fill="#000000" font-family="sans-serif" font-size="13" lengthAdjust="spacing" textLength="150" x="159" y="403.3467">(implements __getitem__)</text></g><!--MD5=[cf71c5464b28464f26a4bb395817fbc6]
class pg_utils.sympy_supp.vector_calculus_3d.Scalar3D--><g id="elem_pg_utils.sympy_supp.vector_calculus_3d.Scalar3D"><rect codeLine="42" fill="#F1F1F1" height="136.0469" id="pg_utils.sympy_supp.vector_calculus_3d.Scalar3D" rx="2.5" ry="2.5" style="stroke:#181818;stroke-width:0.5;" width="272" x="621.5" y="567"/><ellipse cx="724.25" cy="583" fill="#ADD1B2" rx="11" ry="11" style="stroke:#181818;stroke-width:1.0;"/><path d="M727.0156,578.875 Q727.1719,578.6563 727.3594,578.5469 Q727.5469,578.4375 727.7656,578.4375 Q728.1406,578.4375 728.375,578.6953 Q728.6094,578.9531 728.6094,579.5625 L728.6094,581.0156 Q728.6094,581.625 728.375,581.8906 Q728.1406,582.1563 727.7656,582.1563 Q727.4219,582.1563 727.2188,581.9531 Q727.0156,581.7656 726.9063,581.25 Q726.8594,580.8906 726.6719,580.7031 Q726.3438,580.3281 725.7344,580.1094 Q725.125,579.8906 724.5,579.8906 Q723.7344,579.8906 723.1016,580.2188 Q722.4688,580.5469 721.9766,581.2969 Q721.4844,582.0469 721.4844,583.0781 L721.4844,584.1719 Q721.4844,585.4063 722.375,586.2266 Q723.2656,587.0469 724.8594,587.0469 Q725.7969,587.0469 726.4531,586.7969 Q726.8438,586.6406 727.2656,586.2031 Q727.5313,585.9375 727.6797,585.8594 Q727.8281,585.7813 728.0313,585.7813 Q728.3594,585.7813 728.6172,586.0391 Q728.875,586.2969 728.875,586.6406 Q728.875,586.9844 728.5313,587.3906 Q728.0313,587.9688 727.2344,588.2969 Q726.1563,588.75 724.8594,588.75 Q723.3438,588.75 722.1406,588.125 Q721.1563,587.625 720.4688,586.5547 Q719.7813,585.4844 719.7813,584.2031 L719.7813,583.0469 Q719.7813,581.7188 720.3984,580.5703 Q721.0156,579.4219 722.1094,578.8047 Q723.2031,578.1875 724.4375,578.1875 Q725.1719,578.1875 725.8203,578.3516 Q726.4688,578.5156 727.0156,578.875 Z " fill="#000000"/><text fill="#000000" font-family="sans-serif" font-size="14" lengthAdjust="spacing" textLength="58" x="744.75" y="588.7285">Scalar3D</text><line style="stroke:#181818;stroke-width:0.5;" x1="622.5" x2="892.5" y1="599" y2="599"/><line style="stroke:#181818;stroke-width:0.5;" x1="622.5" x2="892.5" y1="607" y2="607"/><text fill="#000000" font-family="sans-serif" font-size="14" lengthAdjust="spacing" textLength="39" x="627.5" y="625.5332">grad()</text><text fill="#000000" font-family="sans-serif" font-size="14" lengthAdjust="spacing" textLength="66" x="627.5" y="643.1426">laplacian()</text><text fill="#000000" font-family="sans-serif" font-size="14" lengthAdjust="spacing" textLength="85" x="627.5" y="660.752">transform_to(</text><text fill="#000000" font-family="sans-serif" font-size="14" lengthAdjust="spacing" textLength="228" x="659.5" y="678.3613">new_sys: OrthogonalCoordinates3D</text><text fill="#000000" font-family="sans-serif" font-size="14" lengthAdjust="spacing" textLength="84" x="627.5" y="695.9707">) -&gt; Scalar3D</text></g><!--MD5=[c946b763e60fcc6a9785786f411e9ac0]
class pg_utils.sympy_supp.vector_calculus_3d.Tensor3D--><g id="elem_pg_utils.sympy_supp.vector_calculus_3d.Tensor3D"><rect codeLine="47" fill="#F1F1F1" height="171.2656" id="pg_utils.sympy_supp.vector_calculus_3d.Tensor3D" rx="2.5" ry="2.5" style="stroke:#181818;stroke-width:0.5;" width="272" x="742.5" y="304.5"/><ellipse cx="842.75" cy="320.5" fill="#A9DCDF" rx="11" ry="11" style="stroke:#181818;stroke-width:1.0;"/><path d="M844.9375,322.2656 L840.7969,322.2656 L840.375,323.2969 L840.7969,323.2969 Q841.4063,323.2969 841.6719,323.5313 Q841.9375,323.7656 841.9375,324.1563 Q841.9375,324.5313 841.6719,324.7656 Q841.4063,325 840.7969,325 L838.5,325 Q837.8906,325 837.6328,324.7656 Q837.375,324.5313 837.375,324.1406 Q837.375,323.7656 837.6484,323.5234 Q837.9219,323.2813 838.5469,323.2969 L841.2188,316.6406 L840.1094,316.6406 Q839.5,316.6406 839.2344,316.4063 Q838.9688,316.1719 838.9688,315.7813 Q838.9688,315.4063 839.2344,315.1719 Q839.5,314.9375 840.1094,314.9375 L843.7813,314.9375 L847.1719,323.2969 Q847.7656,323.2969 847.9531,323.4375 Q848.3438,323.7031 848.3438,324.1563 Q848.3438,324.5313 848.0859,324.7656 Q847.8281,325 847.2188,325 L844.9219,325 Q844.3125,325 844.0469,324.7656 Q843.7813,324.5313 843.7813,324.1406 Q843.7813,323.7656 844.0469,323.5313 Q844.3125,323.2969 844.9219,323.2969 L845.3438,323.2969 L844.9375,322.2656 Z M844.2188,320.5625 L842.8594,317.1875 L841.4844,320.5625 L844.2188,320.5625 Z " fill="#000000"/><text fill="#000000" font-family="sans-serif" font-size="14" font-style="italic" lengthAdjust="spacing" textLength="63" x="863.25" y="326.2285">Tensor3D</text><line style="stroke:#181818;stroke-width:0.5;" x1="743.5" x2="1013.5" y1="336.5" y2="336.5"/><text fill="#000000" font-family="sans-serif" font-size="14" lengthAdjust="spacing" textLength="243" x="748.5" y="355.0332">coord_sys : OrthogonalCoordinates3D</text><text fill="#000000" font-family="sans-serif" font-size="14" lengthAdjust="spacing" textLength="57" x="748.5" y="372.6426">ndim : int</text><text fill="#000000" font-family="sans-serif" font-size="14" lengthAdjust="spacing" textLength="55" x="748.5" y="390.252">rank : int</text><text fill="#000000" font-family="sans-serif" font-size="14" lengthAdjust="spacing" textLength="40" x="748.5" y="407.8613">tensor</text><line style="stroke:#181818;stroke-width:0.5;" x1="743.5" x2="1013.5" y1="414.9375" y2="414.9375"/><text fill="#000000" font-family="sans-serif" font-size="14" lengthAdjust="spacing" textLength="85" x="748.5" y="433.4707">transform_to(</text><text fill="#000000" font-family="sans-serif" font-size="14" lengthAdjust="spacing" textLength="228" x="780.5" y="451.0801">new_sys: OrthogonalCoordinates3D</text><text fill="#000000" font-family="sans-serif" font-size="14" lengthAdjust="spacing" textLength="89" x="748.5" y="468.6895">) -&gt; Tensor3D</text></g><!--MD5=[8471d3a85aac21c79dbebdb9e8a7471a]
class pg_utils.sympy_supp.vector_calculus_3d.Vector3D--><g id="elem_pg_utils.sympy_supp.vector_calculus_3d.Vector3D"><rect codeLine="54" fill="#F1F1F1" height="136.0469" id="pg_utils.sympy_supp.vector_calculus_3d.Vector3D" rx="2.5" ry="2.5" style="stroke:#181818;stroke-width:0.5;" width="141" x="929" y="567"/><ellipse cx="966.5" cy="583" fill="#ADD1B2" rx="11" ry="11" style="stroke:#181818;stroke-width:1.0;"/><path d="M969.2656,578.875 Q969.4219,578.6563 969.6094,578.5469 Q969.7969,578.4375 970.0156,578.4375 Q970.3906,578.4375 970.625,578.6953 Q970.8594,578.9531 970.8594,579.5625 L970.8594,581.0156 Q970.8594,581.625 970.625,581.8906 Q970.3906,582.1563 970.0156,582.1563 Q969.6719,582.1563 969.4688,581.9531 Q969.2656,581.7656 969.1563,581.25 Q969.1094,580.8906 968.9219,580.7031 Q968.5938,580.3281 967.9844,580.1094 Q967.375,579.8906 966.75,579.8906 Q965.9844,579.8906 965.3516,580.2188 Q964.7188,580.5469 964.2266,581.2969 Q963.7344,582.0469 963.7344,583.0781 L963.7344,584.1719 Q963.7344,585.4063 964.625,586.2266 Q965.5156,587.0469 967.1094,587.0469 Q968.0469,587.0469 968.7031,586.7969 Q969.0938,586.6406 969.5156,586.2031 Q969.7813,585.9375 969.9297,585.8594 Q970.0781,585.7813 970.2813,585.7813 Q970.6094,585.7813 970.8672,586.0391 Q971.125,586.2969 971.125,586.6406 Q971.125,586.9844 970.7813,587.3906 Q970.2813,587.9688 969.4844,588.2969 Q968.4063,588.75 967.1094,588.75 Q965.5938,588.75 964.3906,588.125 Q963.4063,587.625 962.7188,586.5547 Q962.0313,585.4844 962.0313,584.2031 L962.0313,583.0469 Q962.0313,581.7188 962.6484,580.5703 Q963.2656,579.4219 964.3594,578.8047 Q965.4531,578.1875 966.6875,578.1875 Q967.4219,578.1875 968.0703,578.3516 Q968.7188,578.5156 969.2656,578.875 Z " fill="#000000"/><text fill="#000000" font-family="sans-serif" font-size="14" lengthAdjust="spacing" textLength="59" x="985.5" y="588.7285">Vector3D</text><line style="stroke:#181818;stroke-width:0.5;" x1="930" x2="1069" y1="599" y2="599"/><text fill="#808080" font-family="sans-serif" font-size="14" lengthAdjust="spacing" textLength="60" x="935" y="617.5332">Indexable</text><line style="stroke:#181818;stroke-width:1.0;" x1="930" x2="1069" y1="624.6094" y2="624.6094"/><text fill="#000000" font-family="sans-serif" font-size="14" lengthAdjust="spacing" textLength="129" x="935" y="643.1426">__getitem__(key:int)</text><text fill="#000000" font-family="sans-serif" font-size="14" lengthAdjust="spacing" textLength="33" x="935" y="660.752">curl()</text><text fill="#000000" font-family="sans-serif" font-size="14" lengthAdjust="spacing" textLength="28" x="935" y="678.3613">div()</text><text fill="#000000" font-family="sans-serif" font-size="14" lengthAdjust="spacing" textLength="66" x="935" y="695.9707">laplacian()</text></g><!--MD5=[44a406536bd93deac4dc891e566d3a00]
link pg_utils.sympy_supp.vector_calculus_3d.CartesianCoordinates3D to pg_utils.sympy_supp.vector_calculus_3d.OrthogonalCoordinates3D--><g id="link_pg_utils.sympy_supp.vector_calculus_3d.CartesianCoordinates3D_pg_utils.sympy_supp.vector_calculus_3d.OrthogonalCoordinates3D"><path codeLine="62" d="M264.5,195.54 C290,216.27 317.86,238.92 345.25,261.18 " fill="none" id="pg_utils.sympy_supp.vector_calculus_3d.CartesianCoordinates3D-to-pg_utils.sympy_supp.vector_calculus_3d.OrthogonalCoordinates3D" style="stroke:#181818;stroke-width:1.0;"/><polygon fill="none" points="349.74,255.81,360.85,273.86,340.91,266.67,349.74,255.81" style="stroke:#181818;stroke-width:1.0;"/></g><!--MD5=[0b5cf24d61da7627c443c1b6694e2b6c]
link pg_utils.sympy_supp.vector_calculus_3d.CylindricalCoordinates to pg_utils.sympy_supp.vector_calculus_3d.OrthogonalCoordinates3D--><g id="link_pg_utils.sympy_supp.vector_calculus_3d.CylindricalCoordinates_pg_utils.sympy_supp.vector_calculus_3d.OrthogonalCoordinates3D"><path codeLine="63" d="M502.5,195.54 C502.5,213.96 502.5,233.88 502.5,253.71 " fill="none" id="pg_utils.sympy_supp.vector_calculus_3d.CylindricalCoordinates-to-pg_utils.sympy_supp.vector_calculus_3d.OrthogonalCoordinates3D" style="stroke:#181818;stroke-width:1.0;"/><polygon fill="none" points="509.5,253.86,502.5,273.86,495.5,253.86,509.5,253.86" style="stroke:#181818;stroke-width:1.0;"/></g><!--MD5=[596daf88258f448f3bfec4adb3759e93]
reverse link pg_utils.sympy_supp.vector_calculus_3d.Tensor3D to pg_utils.sympy_supp.vector_calculus_3d.Scalar3D--><g id="link_pg_utils.sympy_supp.vector_calculus_3d.Tensor3D_pg_utils.sympy_supp.vector_calculus_3d.Scalar3D"><path codeLine="64" d="M827.3,493.82 C815,518.52 802.18,544.27 790.93,566.86 " fill="none" id="pg_utils.sympy_supp.vector_calculus_3d.Tensor3D-backto-pg_utils.sympy_supp.vector_calculus_3d.Scalar3D" style="stroke:#181818;stroke-width:1.0;"/><polygon fill="none" points="821.17,490.43,836.35,475.65,833.7,496.67,821.17,490.43" style="stroke:#181818;stroke-width:1.0;"/></g><!--MD5=[397a631c72270c1dcd5c8cd744136ef1]
link pg_utils.sympy_supp.vector_calculus_3d.SphericalCoordinates to pg_utils.sympy_supp.vector_calculus_3d.OrthogonalCoordinates3D--><g id="link_pg_utils.sympy_supp.vector_calculus_3d.SphericalCoordinates_pg_utils.sympy_supp.vector_calculus_3d.OrthogonalCoordinates3D"><path codeLine="65" d="M718.61,213.33 C699.45,228.91 679.47,245.15 659.74,261.18 " fill="none" id="pg_utils.sympy_supp.vector_calculus_3d.SphericalCoordinates-to-pg_utils.sympy_supp.vector_calculus_3d.OrthogonalCoordinates3D" style="stroke:#181818;stroke-width:1.0;"/><polygon fill="none" points="663.93,266.8,643.99,273.98,655.1,255.94,663.93,266.8" style="stroke:#181818;stroke-width:1.0;"/></g><!--MD5=[bf122f5160afed1e1898dce60f6411c1]
reverse link pg_utils.sympy_supp.vector_calculus_3d.Tensor3D to pg_utils.sympy_supp.vector_calculus_3d.Vector3D--><g id="link_pg_utils.sympy_supp.vector_calculus_3d.Tensor3D_pg_utils.sympy_supp.vector_calculus_3d.Vector3D"><path codeLine="66" d="M929.7,493.82 C942,518.52 954.82,544.27 966.07,566.86 " fill="none" id="pg_utils.sympy_supp.vector_calculus_3d.Tensor3D-backto-pg_utils.sympy_supp.vector_calculus_3d.Vector3D" style="stroke:#181818;stroke-width:1.0;"/><polygon fill="none" points="923.3,496.67,920.65,475.65,935.83,490.43,923.3,496.67" style="stroke:#181818;stroke-width:1.0;"/></g><!--MD5=[4f95e16e480e2b0984c2e7b361d30fa8]
link pg_utils.sympy_supp.vector_calculus_3d.OrthogonalCoordinates3D to pg_utils.sympy_supp.vector_calculus_3d.Tensor3D--><g id="link_pg_utils.sympy_supp.vector_calculus_3d.OrthogonalCoordinates3D_pg_utils.sympy_supp.vector_calculus_3d.Tensor3D"><path codeLine="67" d="M645.72,390 C673.13,390 701.89,390 729.48,390 " fill="none" id="pg_utils.sympy_supp.vector_calculus_3d.OrthogonalCoordinates3D-to-pg_utils.sympy_supp.vector_calculus_3d.Tensor3D" style="stroke:#181818;stroke-width:1.0;"/><polygon fill="none" points="742.49,390,736.49,386,730.49,390,736.49,394,742.49,390" style="stroke:#181818;stroke-width:1.0;"/><text fill="#000000" font-family="sans-serif" font-size="13" lengthAdjust="spacing" textLength="60" x="664" y="383.4951">coord_sys</text></g><!--MD5=[e62860ca9b4b1372e9c5272dafae89f2]
@startuml classes_vector_calculus
set namespaceSeparator none
' left to right direction
!define COMMENT(x) <color:grey>x</color>

class "CartesianCoordinates3D" as pg_utils.sympy_supp.vector_calculus_3d.CartesianCoordinates3D {
  curl(vector_in)
  div(vector_in)
  grad(scalar_in)
  laplacian(tensor_in, rank)
  transform_to(tensor_in, \n\tnew_sys: OrthogonalCoordinates3D, \n\tcoeffs_new) -> OrthogonalCoordinates3D
}
class "CylindricalCoordinates" as pg_utils.sympy_supp.vector_calculus_3d.CylindricalCoordinates {
  curl(vector_in)
  div(vector_in)
  grad(scalar_in)
  laplacian(tensor_in, rank)
  transform_to(v_in, \n\tnew_sys: OrthogonalCoordinates3D, \n\tcoeffs_new) -> OrthogonalCoordinates3D
}
class "SphericalCoordinates" as pg_utils.sympy_supp.vector_calculus_3d.SphericalCoordinates {
  curl(vector_in)
  div(vector_in)
  grad(scalar_in)
  laplacian(tensor_in, rank)
  surface_div(vector_in)
  {abstract}surface_grad(scalar_in)
  transform_to(v_in, \n\tnew_sys: OrthogonalCoordinates3D, \n\tcoeffs_new) -> OrthogonalCoordinates3D
}
abstract class "OrthogonalCoordinates3D" as pg_utils.sympy_supp.vector_calculus_3d.OrthogonalCoordinates3D {
  COMMENT(Indexable (implements __getitem__))
  - -
  {field}coords
  - -
  __getitem__(key: int)
  {abstract}curl(vector_in)
  {abstract}div(vector_in)
  {abstract}grad(scalar_in)
  {abstract}laplacian(tensor_in, rank)
  {abstract}transform_to(tensor_in, \n\tnew_sys: 'OrthogonalCoordinates3D', \n\tcoeffs_new)
}
note left of pg_utils.sympy_supp.vector_calculus_3d.OrthogonalCoordinates3D: Indexable \n(implements ~__getitem__)

class "Scalar3D" as pg_utils.sympy_supp.vector_calculus_3d.Scalar3D {
  grad()
  laplacian()
  transform_to(\n\tnew_sys: OrthogonalCoordinates3D\n) -> Scalar3D
}
abstract class "Tensor3D" as pg_utils.sympy_supp.vector_calculus_3d.Tensor3D {
  coord_sys : OrthogonalCoordinates3D
  ndim : int
  rank : int
  tensor
  transform_to(\n\tnew_sys: OrthogonalCoordinates3D\n) -> Tensor3D
}
class "Vector3D" as pg_utils.sympy_supp.vector_calculus_3d.Vector3D {
  COMMENT(Indexable)
  - -
  __getitem__(key:int)
  curl()
  div()
  laplacian()
}
pg_utils.sympy_supp.vector_calculus_3d.CartesianCoordinates3D - -|> pg_utils.sympy_supp.vector_calculus_3d.OrthogonalCoordinates3D
pg_utils.sympy_supp.vector_calculus_3d.CylindricalCoordinates - -|> pg_utils.sympy_supp.vector_calculus_3d.OrthogonalCoordinates3D
pg_utils.sympy_supp.vector_calculus_3d.Scalar3D -up-|> pg_utils.sympy_supp.vector_calculus_3d.Tensor3D
pg_utils.sympy_supp.vector_calculus_3d.SphericalCoordinates - -|> pg_utils.sympy_supp.vector_calculus_3d.OrthogonalCoordinates3D
pg_utils.sympy_supp.vector_calculus_3d.Vector3D -up-|> pg_utils.sympy_supp.vector_calculus_3d.Tensor3D
pg_utils.sympy_supp.vector_calculus_3d.OrthogonalCoordinates3D -right-o pg_utils.sympy_supp.vector_calculus_3d.Tensor3D : coord_sys
@enduml

@startuml classes_vector_calculus
set namespaceSeparator none

class "CartesianCoordinates3D" as pg_utils.sympy_supp.vector_calculus_3d.CartesianCoordinates3D {
  curl(vector_in)
  div(vector_in)
  grad(scalar_in)
  laplacian(tensor_in, rank)
  transform_to(tensor_in, \n\tnew_sys: OrthogonalCoordinates3D, \n\tcoeffs_new) -> OrthogonalCoordinates3D
}
class "CylindricalCoordinates" as pg_utils.sympy_supp.vector_calculus_3d.CylindricalCoordinates {
  curl(vector_in)
  div(vector_in)
  grad(scalar_in)
  laplacian(tensor_in, rank)
  transform_to(v_in, \n\tnew_sys: OrthogonalCoordinates3D, \n\tcoeffs_new) -> OrthogonalCoordinates3D
}
class "SphericalCoordinates" as pg_utils.sympy_supp.vector_calculus_3d.SphericalCoordinates {
  curl(vector_in)
  div(vector_in)
  grad(scalar_in)
  laplacian(tensor_in, rank)
  surface_div(vector_in)
  {abstract}surface_grad(scalar_in)
  transform_to(v_in, \n\tnew_sys: OrthogonalCoordinates3D, \n\tcoeffs_new) -> OrthogonalCoordinates3D
}
abstract class "OrthogonalCoordinates3D" as pg_utils.sympy_supp.vector_calculus_3d.OrthogonalCoordinates3D {
  <color:grey>Indexable (implements __getitem__)</color>
  - -
  {field}coords
  - -
  __getitem__(key: int)
  {abstract}curl(vector_in)
  {abstract}div(vector_in)
  {abstract}grad(scalar_in)
  {abstract}laplacian(tensor_in, rank)
  {abstract}transform_to(tensor_in, \n\tnew_sys: 'OrthogonalCoordinates3D', \n\tcoeffs_new)
}
note left of pg_utils.sympy_supp.vector_calculus_3d.OrthogonalCoordinates3D: Indexable \n(implements ~__getitem__)

class "Scalar3D" as pg_utils.sympy_supp.vector_calculus_3d.Scalar3D {
  grad()
  laplacian()
  transform_to(\n\tnew_sys: OrthogonalCoordinates3D\n) -> Scalar3D
}
abstract class "Tensor3D" as pg_utils.sympy_supp.vector_calculus_3d.Tensor3D {
  coord_sys : OrthogonalCoordinates3D
  ndim : int
  rank : int
  tensor
  transform_to(\n\tnew_sys: OrthogonalCoordinates3D\n) -> Tensor3D
}
class "Vector3D" as pg_utils.sympy_supp.vector_calculus_3d.Vector3D {
  <color:grey>Indexable</color>
  - -
  __getitem__(key:int)
  curl()
  div()
  laplacian()
}
pg_utils.sympy_supp.vector_calculus_3d.CartesianCoordinates3D - -|> pg_utils.sympy_supp.vector_calculus_3d.OrthogonalCoordinates3D
pg_utils.sympy_supp.vector_calculus_3d.CylindricalCoordinates - -|> pg_utils.sympy_supp.vector_calculus_3d.OrthogonalCoordinates3D
pg_utils.sympy_supp.vector_calculus_3d.Scalar3D -up-|> pg_utils.sympy_supp.vector_calculus_3d.Tensor3D
pg_utils.sympy_supp.vector_calculus_3d.SphericalCoordinates - -|> pg_utils.sympy_supp.vector_calculus_3d.OrthogonalCoordinates3D
pg_utils.sympy_supp.vector_calculus_3d.Vector3D -up-|> pg_utils.sympy_supp.vector_calculus_3d.Tensor3D
pg_utils.sympy_supp.vector_calculus_3d.OrthogonalCoordinates3D -right-o pg_utils.sympy_supp.vector_calculus_3d.Tensor3D : coord_sys
@enduml

PlantUML version 1.2022.7(Mon Aug 22 19:01:30 CEST 2022)
(GPL source distribution)
Java Runtime: Java(TM) SE Runtime Environment
JVM: Java HotSpot(TM) Client VM
Default Encoding: Cp1252
Language: en
Country: US
--></g></svg>