<?xml version="1.0" encoding="UTF-8" standalone="no"?><svg xmlns="http://www.w3.org/2000/svg" xmlns:xlink="http://www.w3.org/1999/xlink" contentStyleType="text/css" height="984px" preserveAspectRatio="none" style="width:2024px;height:984px;background:#FFFFFF;" version="1.1" viewBox="0 0 2024 984" width="2024px" zoomAndPan="magnify"><defs/><g><!--MD5=[0e4bbca92205680652656dc015900722]
class pg_utils.sympy_supp.vector_calculus_3d.CartesianCoordinates3D--><g id="elem_pg_utils.sympy_supp.vector_calculus_3d.CartesianCoordinates3D"><rect codeLine="2" fill="#F1F1F1" height="136.0469" id="pg_utils.sympy_supp.vector_calculus_3d.CartesianCoordinates3D" rx="2.5" ry="2.5" style="stroke:#181818;stroke-width:0.5;" width="476" x="7" y="209.5"/><ellipse cx="162.75" cy="225.5" fill="#ADD1B2" rx="11" ry="11" style="stroke:#181818;stroke-width:1.0;"/><path d="M165.5156,221.375 Q165.6719,221.1563 165.8594,221.0469 Q166.0469,220.9375 166.2656,220.9375 Q166.6406,220.9375 166.875,221.1953 Q167.1094,221.4531 167.1094,222.0625 L167.1094,223.5156 Q167.1094,224.125 166.875,224.3906 Q166.6406,224.6563 166.2656,224.6563 Q165.9219,224.6563 165.7188,224.4531 Q165.5156,224.2656 165.4063,223.75 Q165.3594,223.3906 165.1719,223.2031 Q164.8438,222.8281 164.2344,222.6094 Q163.625,222.3906 163,222.3906 Q162.2344,222.3906 161.6016,222.7188 Q160.9688,223.0469 160.4766,223.7969 Q159.9844,224.5469 159.9844,225.5781 L159.9844,226.6719 Q159.9844,227.9063 160.875,228.7266 Q161.7656,229.5469 163.3594,229.5469 Q164.2969,229.5469 164.9531,229.2969 Q165.3438,229.1406 165.7656,228.7031 Q166.0313,228.4375 166.1797,228.3594 Q166.3281,228.2813 166.5313,228.2813 Q166.8594,228.2813 167.1172,228.5391 Q167.375,228.7969 167.375,229.1406 Q167.375,229.4844 167.0313,229.8906 Q166.5313,230.4688 165.7344,230.7969 Q164.6563,231.25 163.3594,231.25 Q161.8438,231.25 160.6406,230.625 Q159.6563,230.125 158.9688,229.0547 Q158.2813,227.9844 158.2813,226.7031 L158.2813,225.5469 Q158.2813,224.2188 158.8984,223.0703 Q159.5156,221.9219 160.6094,221.3047 Q161.7031,220.6875 162.9375,220.6875 Q163.6719,220.6875 164.3203,220.8516 Q164.9688,221.0156 165.5156,221.375 Z " fill="#000000"/><text fill="#000000" font-family="sans-serif" font-size="14" lengthAdjust="spacing" textLength="156" x="183.25" y="231.2285">CartesianCoordinates3D</text><line style="stroke:#181818;stroke-width:0.5;" x1="8" x2="482" y1="241.5" y2="241.5"/><line style="stroke:#181818;stroke-width:0.5;" x1="8" x2="482" y1="249.5" y2="249.5"/><text fill="#000000" font-family="sans-serif" font-size="14" lengthAdjust="spacing" textLength="91" x="13" y="268.0332">curl(vector_in)</text><text fill="#000000" font-family="sans-serif" font-size="14" lengthAdjust="spacing" textLength="86" x="13" y="285.6426">div(vector_in)</text><text fill="#000000" font-family="sans-serif" font-size="14" lengthAdjust="spacing" textLength="96" x="13" y="303.252">grad(scalar_in)</text><text fill="#000000" font-family="sans-serif" font-size="14" lengthAdjust="spacing" textLength="161" x="13" y="320.8613">laplacian(tensor_in, rank)</text><text fill="#000000" font-family="sans-serif" font-size="14" lengthAdjust="spacing" textLength="464" x="13" y="338.4707">transform_to(tensor_in, new_sys: OrthogonalCoordinates3D, coeffs_new)</text></g><!--MD5=[f1aef55aad04221093ce544da38573d1]
class pg_utils.pg_model.base.CollectionPG--><g id="elem_pg_utils.pg_model.base.CollectionPG"><rect codeLine="9" fill="#F1F1F1" height="541.0625" id="pg_utils.pg_model.base.CollectionPG" rx="2.5" ry="2.5" style="stroke:#181818;stroke-width:0.5;" width="154" x="1848" y="7"/><ellipse cx="1881" cy="23" fill="#ADD1B2" rx="11" ry="11" style="stroke:#181818;stroke-width:1.0;"/><path d="M1883.7656,18.875 Q1883.9219,18.6563 1884.1094,18.5469 Q1884.2969,18.4375 1884.5156,18.4375 Q1884.8906,18.4375 1885.125,18.6953 Q1885.3594,18.9531 1885.3594,19.5625 L1885.3594,21.0156 Q1885.3594,21.625 1885.125,21.8906 Q1884.8906,22.1563 1884.5156,22.1563 Q1884.1719,22.1563 1883.9688,21.9531 Q1883.7656,21.7656 1883.6563,21.25 Q1883.6094,20.8906 1883.4219,20.7031 Q1883.0938,20.3281 1882.4844,20.1094 Q1881.875,19.8906 1881.25,19.8906 Q1880.4844,19.8906 1879.8516,20.2188 Q1879.2188,20.5469 1878.7266,21.2969 Q1878.2344,22.0469 1878.2344,23.0781 L1878.2344,24.1719 Q1878.2344,25.4063 1879.125,26.2266 Q1880.0156,27.0469 1881.6094,27.0469 Q1882.5469,27.0469 1883.2031,26.7969 Q1883.5938,26.6406 1884.0156,26.2031 Q1884.2813,25.9375 1884.4297,25.8594 Q1884.5781,25.7813 1884.7813,25.7813 Q1885.1094,25.7813 1885.3672,26.0391 Q1885.625,26.2969 1885.625,26.6406 Q1885.625,26.9844 1885.2813,27.3906 Q1884.7813,27.9688 1883.9844,28.2969 Q1882.9063,28.75 1881.6094,28.75 Q1880.0938,28.75 1878.8906,28.125 Q1877.9063,27.625 1877.2188,26.5547 Q1876.5313,25.4844 1876.5313,24.2031 L1876.5313,23.0469 Q1876.5313,21.7188 1877.1484,20.5703 Q1877.7656,19.4219 1878.8594,18.8047 Q1879.9531,18.1875 1881.1875,18.1875 Q1881.9219,18.1875 1882.5703,18.3516 Q1883.2188,18.5156 1883.7656,18.875 Z " fill="#000000"/><text fill="#000000" font-family="sans-serif" font-size="14" lengthAdjust="spacing" textLength="82" x="1899" y="28.7285">CollectionPG</text><line style="stroke:#181818;stroke-width:0.5;" x1="1849" x2="2001" y1="39" y2="39"/><text fill="#000000" font-family="sans-serif" font-size="14" lengthAdjust="spacing" textLength="33" x="1854" y="57.5332">Bp_e</text><text fill="#000000" font-family="sans-serif" font-size="14" lengthAdjust="spacing" textLength="36" x="1854" y="75.1426">Bp_m</text><text fill="#000000" font-family="sans-serif" font-size="14" lengthAdjust="spacing" textLength="33" x="1854" y="92.752">Bp_p</text><text fill="#000000" font-family="sans-serif" font-size="14" lengthAdjust="spacing" textLength="30" x="1854" y="110.3613">Br_b</text><text fill="#000000" font-family="sans-serif" font-size="14" lengthAdjust="spacing" textLength="32" x="1854" y="127.9707">Bs_e</text><text fill="#000000" font-family="sans-serif" font-size="14" lengthAdjust="spacing" textLength="35" x="1854" y="145.5801">Bs_m</text><text fill="#000000" font-family="sans-serif" font-size="14" lengthAdjust="spacing" textLength="32" x="1854" y="163.1895">Bs_p</text><text fill="#000000" font-family="sans-serif" font-size="14" lengthAdjust="spacing" textLength="31" x="1854" y="180.7988">Bz_e</text><text fill="#000000" font-family="sans-serif" font-size="14" lengthAdjust="spacing" textLength="34" x="1854" y="198.4082">Bz_m</text><text fill="#000000" font-family="sans-serif" font-size="14" lengthAdjust="spacing" textLength="31" x="1854" y="216.0176">Bz_p</text><text fill="#000000" font-family="sans-serif" font-size="14" lengthAdjust="spacing" textLength="27" x="1854" y="233.627">Mpp</text><text fill="#000000" font-family="sans-serif" font-size="14" lengthAdjust="spacing" textLength="25" x="1854" y="251.2363">Mpz</text><text fill="#000000" font-family="sans-serif" font-size="14" lengthAdjust="spacing" textLength="26" x="1854" y="268.8457">Msp</text><text fill="#000000" font-family="sans-serif" font-size="14" lengthAdjust="spacing" textLength="25" x="1854" y="286.4551">Mss</text><text fill="#000000" font-family="sans-serif" font-size="14" lengthAdjust="spacing" textLength="24" x="1854" y="304.0645">Msz</text><text fill="#000000" font-family="sans-serif" font-size="14" lengthAdjust="spacing" textLength="19" x="1854" y="321.6738">Psi</text><text fill="#000000" font-family="sans-serif" font-size="14" lengthAdjust="spacing" textLength="63" x="1854" y="339.2832">dBp_dz_e</text><text fill="#000000" font-family="sans-serif" font-size="14" lengthAdjust="spacing" textLength="62" x="1854" y="356.8926">dBs_dz_e</text><text fill="#000000" font-family="sans-serif" font-size="14" lengthAdjust="spacing" textLength="129" x="1854" y="374.502">pg_field_names : list</text><text fill="#000000" font-family="sans-serif" font-size="14" lengthAdjust="spacing" textLength="33" x="1854" y="392.1113">zMpp</text><text fill="#000000" font-family="sans-serif" font-size="14" lengthAdjust="spacing" textLength="32" x="1854" y="409.7207">zMsp</text><text fill="#000000" font-family="sans-serif" font-size="14" lengthAdjust="spacing" textLength="31" x="1854" y="427.3301">zMss</text><line style="stroke:#181818;stroke-width:0.5;" x1="1849" x2="2001" y1="434.4063" y2="434.4063"/><text fill="#000000" font-family="sans-serif" font-size="14" lengthAdjust="spacing" textLength="117" x="1854" y="452.9395">subset_B_bound()</text><text fill="#000000" font-family="sans-serif" font-size="14" lengthAdjust="spacing" textLength="142" x="1854" y="470.5488">subset_B_bound_cyl()</text><text fill="#000000" font-family="sans-serif" font-size="14" lengthAdjust="spacing" textLength="126" x="1854" y="488.1582">subset_B_equator()</text><text fill="#000000" font-family="sans-serif" font-size="14" lengthAdjust="spacing" textLength="87" x="1854" y="505.7676">subset_mag()</text><text fill="#000000" font-family="sans-serif" font-size="14" lengthAdjust="spacing" textLength="117" x="1854" y="523.377">subset_moments()</text><text fill="#000000" font-family="sans-serif" font-size="14" lengthAdjust="spacing" textLength="58" x="1854" y="540.9863">vorticity()</text></g><!--MD5=[db0ee13ecc438b3486198ad38cbf9c79]
class pg_utils.sympy_supp.vector_calculus_3d.CylindricalCoordinates--><g id="elem_pg_utils.sympy_supp.vector_calculus_3d.CylindricalCoordinates"><rect codeLine="39" fill="#F1F1F1" height="136.0469" id="pg_utils.sympy_supp.vector_calculus_3d.CylindricalCoordinates" rx="2.5" ry="2.5" style="stroke:#181818;stroke-width:0.5;" width="630" x="518" y="209.5"/><ellipse cx="757.75" cy="225.5" fill="#ADD1B2" rx="11" ry="11" style="stroke:#181818;stroke-width:1.0;"/><path d="M760.5156,221.375 Q760.6719,221.1563 760.8594,221.0469 Q761.0469,220.9375 761.2656,220.9375 Q761.6406,220.9375 761.875,221.1953 Q762.1094,221.4531 762.1094,222.0625 L762.1094,223.5156 Q762.1094,224.125 761.875,224.3906 Q761.6406,224.6563 761.2656,224.6563 Q760.9219,224.6563 760.7188,224.4531 Q760.5156,224.2656 760.4063,223.75 Q760.3594,223.3906 760.1719,223.2031 Q759.8438,222.8281 759.2344,222.6094 Q758.625,222.3906 758,222.3906 Q757.2344,222.3906 756.6016,222.7188 Q755.9688,223.0469 755.4766,223.7969 Q754.9844,224.5469 754.9844,225.5781 L754.9844,226.6719 Q754.9844,227.9063 755.875,228.7266 Q756.7656,229.5469 758.3594,229.5469 Q759.2969,229.5469 759.9531,229.2969 Q760.3438,229.1406 760.7656,228.7031 Q761.0313,228.4375 761.1797,228.3594 Q761.3281,228.2813 761.5313,228.2813 Q761.8594,228.2813 762.1172,228.5391 Q762.375,228.7969 762.375,229.1406 Q762.375,229.4844 762.0313,229.8906 Q761.5313,230.4688 760.7344,230.7969 Q759.6563,231.25 758.3594,231.25 Q756.8438,231.25 755.6406,230.625 Q754.6563,230.125 753.9688,229.0547 Q753.2813,227.9844 753.2813,226.7031 L753.2813,225.5469 Q753.2813,224.2188 753.8984,223.0703 Q754.5156,221.9219 755.6094,221.3047 Q756.7031,220.6875 757.9375,220.6875 Q758.6719,220.6875 759.3203,220.8516 Q759.9688,221.0156 760.5156,221.375 Z " fill="#000000"/><text fill="#000000" font-family="sans-serif" font-size="14" lengthAdjust="spacing" textLength="142" x="778.25" y="231.2285">CylindricalCoordinates</text><line style="stroke:#181818;stroke-width:0.5;" x1="519" x2="1147" y1="241.5" y2="241.5"/><line style="stroke:#181818;stroke-width:0.5;" x1="519" x2="1147" y1="249.5" y2="249.5"/><text fill="#000000" font-family="sans-serif" font-size="14" lengthAdjust="spacing" textLength="91" x="524" y="268.0332">curl(vector_in)</text><text fill="#000000" font-family="sans-serif" font-size="14" lengthAdjust="spacing" textLength="86" x="524" y="285.6426">div(vector_in)</text><text fill="#000000" font-family="sans-serif" font-size="14" lengthAdjust="spacing" textLength="96" x="524" y="303.252">grad(scalar_in)</text><text fill="#000000" font-family="sans-serif" font-size="14" lengthAdjust="spacing" textLength="161" x="524" y="320.8613">laplacian(tensor_in, rank)</text><text fill="#000000" font-family="sans-serif" font-size="14" lengthAdjust="spacing" textLength="618" x="524" y="338.4707">transform_to(v_in, new_sys: OrthogonalCoordinates3D, coeffs_new) -&gt; OrthogonalCoordinates3D</text></g><!--MD5=[fbe1b5a6a69e801a1f7451fe32c9ce86]
class pg_utils.pg_model.base.LabeledCollection--><g id="elem_pg_utils.pg_model.base.LabeledCollection"><rect codeLine="46" fill="#F1F1F1" height="118.4375" id="pg_utils.pg_model.base.LabeledCollection" rx="2.5" ry="2.5" style="stroke:#181818;stroke-width:0.5;" width="145" x="1852.5" y="627"/><ellipse cx="1867.5" cy="643" fill="#ADD1B2" rx="11" ry="11" style="stroke:#181818;stroke-width:1.0;"/><path d="M1870.2656,638.875 Q1870.4219,638.6563 1870.6094,638.5469 Q1870.7969,638.4375 1871.0156,638.4375 Q1871.3906,638.4375 1871.625,638.6953 Q1871.8594,638.9531 1871.8594,639.5625 L1871.8594,641.0156 Q1871.8594,641.625 1871.625,641.8906 Q1871.3906,642.1563 1871.0156,642.1563 Q1870.6719,642.1563 1870.4688,641.9531 Q1870.2656,641.7656 1870.1563,641.25 Q1870.1094,640.8906 1869.9219,640.7031 Q1869.5938,640.3281 1868.9844,640.1094 Q1868.375,639.8906 1867.75,639.8906 Q1866.9844,639.8906 1866.3516,640.2188 Q1865.7188,640.5469 1865.2266,641.2969 Q1864.7344,642.0469 1864.7344,643.0781 L1864.7344,644.1719 Q1864.7344,645.4063 1865.625,646.2266 Q1866.5156,647.0469 1868.1094,647.0469 Q1869.0469,647.0469 1869.7031,646.7969 Q1870.0938,646.6406 1870.5156,646.2031 Q1870.7813,645.9375 1870.9297,645.8594 Q1871.0781,645.7813 1871.2813,645.7813 Q1871.6094,645.7813 1871.8672,646.0391 Q1872.125,646.2969 1872.125,646.6406 Q1872.125,646.9844 1871.7813,647.3906 Q1871.2813,647.9688 1870.4844,648.2969 Q1869.4063,648.75 1868.1094,648.75 Q1866.5938,648.75 1865.3906,648.125 Q1864.4063,647.625 1863.7188,646.5547 Q1863.0313,645.4844 1863.0313,644.2031 L1863.0313,643.0469 Q1863.0313,641.7188 1863.6484,640.5703 Q1864.2656,639.4219 1865.3594,638.8047 Q1866.4531,638.1875 1867.6875,638.1875 Q1868.4219,638.1875 1869.0703,638.3516 Q1869.7188,638.5156 1870.2656,638.875 Z " fill="#000000"/><text fill="#000000" font-family="sans-serif" font-size="14" lengthAdjust="spacing" textLength="113" x="1881.5" y="648.7285">LabeledCollection</text><line style="stroke:#181818;stroke-width:0.5;" x1="1853.5" x2="1996.5" y1="659" y2="659"/><text fill="#000000" font-family="sans-serif" font-size="14" lengthAdjust="spacing" textLength="55" x="1858.5" y="677.5332">iter_filter</text><text fill="#000000" font-family="sans-serif" font-size="14" lengthAdjust="spacing" textLength="63" x="1858.5" y="695.1426">iter_name</text><text fill="#000000" font-family="sans-serif" font-size="14" lengthAdjust="spacing" textLength="49" x="1858.5" y="712.752">n_fields</text><text fill="#000000" font-family="sans-serif" font-size="14" lengthAdjust="spacing" textLength="63" x="1858.5" y="730.3613">n_iter : int</text><line style="stroke:#181818;stroke-width:0.5;" x1="1853.5" x2="1996.5" y1="737.4375" y2="737.4375"/></g><!--MD5=[e644404bc47556349412949d56e4c1d2]
class pg_utils.pg_model.base.LabeledSubCollection--><g id="elem_pg_utils.pg_model.base.LabeledSubCollection"><rect codeLine="52" fill="#F1F1F1" height="136.0469" id="pg_utils.pg_model.base.LabeledSubCollection" rx="2.5" ry="2.5" style="stroke:#181818;stroke-width:0.5;" width="170" x="1840" y="841"/><ellipse cx="1855" cy="857" fill="#ADD1B2" rx="11" ry="11" style="stroke:#181818;stroke-width:1.0;"/><path d="M1857.7656,852.875 Q1857.9219,852.6563 1858.1094,852.5469 Q1858.2969,852.4375 1858.5156,852.4375 Q1858.8906,852.4375 1859.125,852.6953 Q1859.3594,852.9531 1859.3594,853.5625 L1859.3594,855.0156 Q1859.3594,855.625 1859.125,855.8906 Q1858.8906,856.1563 1858.5156,856.1563 Q1858.1719,856.1563 1857.9688,855.9531 Q1857.7656,855.7656 1857.6563,855.25 Q1857.6094,854.8906 1857.4219,854.7031 Q1857.0938,854.3281 1856.4844,854.1094 Q1855.875,853.8906 1855.25,853.8906 Q1854.4844,853.8906 1853.8516,854.2188 Q1853.2188,854.5469 1852.7266,855.2969 Q1852.2344,856.0469 1852.2344,857.0781 L1852.2344,858.1719 Q1852.2344,859.4063 1853.125,860.2266 Q1854.0156,861.0469 1855.6094,861.0469 Q1856.5469,861.0469 1857.2031,860.7969 Q1857.5938,860.6406 1858.0156,860.2031 Q1858.2813,859.9375 1858.4297,859.8594 Q1858.5781,859.7813 1858.7813,859.7813 Q1859.1094,859.7813 1859.3672,860.0391 Q1859.625,860.2969 1859.625,860.6406 Q1859.625,860.9844 1859.2813,861.3906 Q1858.7813,861.9688 1857.9844,862.2969 Q1856.9063,862.75 1855.6094,862.75 Q1854.0938,862.75 1852.8906,862.125 Q1851.9063,861.625 1851.2188,860.5547 Q1850.5313,859.4844 1850.5313,858.2031 L1850.5313,857.0469 Q1850.5313,855.7188 1851.1484,854.5703 Q1851.7656,853.4219 1852.8594,852.8047 Q1853.9531,852.1875 1855.1875,852.1875 Q1855.9219,852.1875 1856.5703,852.3516 Q1857.2188,852.5156 1857.7656,852.875 Z " fill="#000000"/><text fill="#000000" font-family="sans-serif" font-size="14" lengthAdjust="spacing" textLength="138" x="1869" y="862.7285">LabeledSubCollection</text><line style="stroke:#181818;stroke-width:0.5;" x1="1841" x2="2009" y1="873" y2="873"/><text fill="#000000" font-family="sans-serif" font-size="14" lengthAdjust="spacing" textLength="98" x="1846" y="891.5332">base_collection</text><text fill="#000000" font-family="sans-serif" font-size="14" lengthAdjust="spacing" textLength="55" x="1846" y="909.1426">iter_filter</text><text fill="#000000" font-family="sans-serif" font-size="14" lengthAdjust="spacing" textLength="63" x="1846" y="926.752">iter_name</text><text fill="#000000" font-family="sans-serif" font-size="14" lengthAdjust="spacing" textLength="49" x="1846" y="944.3613">n_fields</text><text fill="#000000" font-family="sans-serif" font-size="14" lengthAdjust="spacing" textLength="63" x="1846" y="961.9707">n_iter : int</text><line style="stroke:#181818;stroke-width:0.5;" x1="1841" x2="2009" y1="969.0469" y2="969.0469"/></g><!--MD5=[cf18a5060fed265324846f8dd126e446]
class pg_utils.sympy_supp.vector_calculus_3d.OrthogonalCoordinates3D--><g id="elem_pg_utils.sympy_supp.vector_calculus_3d.OrthogonalCoordinates3D"><rect codeLine="59" fill="#F1F1F1" height="153.6563" id="pg_utils.sympy_supp.vector_calculus_3d.OrthogonalCoordinates3D" rx="2.5" ry="2.5" style="stroke:#181818;stroke-width:0.5;" width="482" x="592" y="609"/><ellipse cx="745.75" cy="625" fill="#ADD1B2" rx="11" ry="11" style="stroke:#181818;stroke-width:1.0;"/><path d="M748.5156,620.875 Q748.6719,620.6563 748.8594,620.5469 Q749.0469,620.4375 749.2656,620.4375 Q749.6406,620.4375 749.875,620.6953 Q750.1094,620.9531 750.1094,621.5625 L750.1094,623.0156 Q750.1094,623.625 749.875,623.8906 Q749.6406,624.1563 749.2656,624.1563 Q748.9219,624.1563 748.7188,623.9531 Q748.5156,623.7656 748.4063,623.25 Q748.3594,622.8906 748.1719,622.7031 Q747.8438,622.3281 747.2344,622.1094 Q746.625,621.8906 746,621.8906 Q745.2344,621.8906 744.6016,622.2188 Q743.9688,622.5469 743.4766,623.2969 Q742.9844,624.0469 742.9844,625.0781 L742.9844,626.1719 Q742.9844,627.4063 743.875,628.2266 Q744.7656,629.0469 746.3594,629.0469 Q747.2969,629.0469 747.9531,628.7969 Q748.3438,628.6406 748.7656,628.2031 Q749.0313,627.9375 749.1797,627.8594 Q749.3281,627.7813 749.5313,627.7813 Q749.8594,627.7813 750.1172,628.0391 Q750.375,628.2969 750.375,628.6406 Q750.375,628.9844 750.0313,629.3906 Q749.5313,629.9688 748.7344,630.2969 Q747.6563,630.75 746.3594,630.75 Q744.8438,630.75 743.6406,630.125 Q742.6563,629.625 741.9688,628.5547 Q741.2813,627.4844 741.2813,626.2031 L741.2813,625.0469 Q741.2813,623.7188 741.8984,622.5703 Q742.5156,621.4219 743.6094,620.8047 Q744.7031,620.1875 745.9375,620.1875 Q746.6719,620.1875 747.3203,620.3516 Q747.9688,620.5156 748.5156,620.875 Z " fill="#000000"/><text fill="#000000" font-family="sans-serif" font-size="14" lengthAdjust="spacing" textLength="166" x="766.25" y="630.7285">OrthogonalCoordinates3D</text><line style="stroke:#181818;stroke-width:0.5;" x1="593" x2="1073" y1="641" y2="641"/><text fill="#000000" font-family="sans-serif" font-size="14" lengthAdjust="spacing" textLength="43" x="598" y="659.5332">coords</text><line style="stroke:#181818;stroke-width:0.5;" x1="593" x2="1073" y1="666.6094" y2="666.6094"/><text fill="#000000" font-family="sans-serif" font-size="14" font-style="italic" lengthAdjust="spacing" textLength="90" x="598" y="685.1426">curl(vector_in)</text><text fill="#000000" font-family="sans-serif" font-size="14" font-style="italic" lengthAdjust="spacing" textLength="84" x="598" y="702.752">div(vector_in)</text><text fill="#000000" font-family="sans-serif" font-size="14" font-style="italic" lengthAdjust="spacing" textLength="96" x="598" y="720.3613">grad(scalar_in)</text><text fill="#000000" font-family="sans-serif" font-size="14" font-style="italic" lengthAdjust="spacing" textLength="162" x="598" y="737.9707">laplacian(tensor_in, rank)</text><text fill="#000000" font-family="sans-serif" font-size="14" font-style="italic" lengthAdjust="spacing" textLength="470" x="598" y="755.5801">transform_to(tensor_in, new_sys: 'OrthogonalCoordinates3D', coeffs_new)</text></g><!--MD5=[cf71c5464b28464f26a4bb395817fbc6]
class pg_utils.sympy_supp.vector_calculus_3d.Scalar3D--><g id="elem_pg_utils.sympy_supp.vector_calculus_3d.Scalar3D"><rect codeLine="67" fill="#F1F1F1" height="100.8281" id="pg_utils.sympy_supp.vector_calculus_3d.Scalar3D" rx="2.5" ry="2.5" style="stroke:#181818;stroke-width:0.5;" width="414" x="1109" y="635.5"/><ellipse cx="1282.75" cy="651.5" fill="#ADD1B2" rx="11" ry="11" style="stroke:#181818;stroke-width:1.0;"/><path d="M1285.5156,647.375 Q1285.6719,647.1563 1285.8594,647.0469 Q1286.0469,646.9375 1286.2656,646.9375 Q1286.6406,646.9375 1286.875,647.1953 Q1287.1094,647.4531 1287.1094,648.0625 L1287.1094,649.5156 Q1287.1094,650.125 1286.875,650.3906 Q1286.6406,650.6563 1286.2656,650.6563 Q1285.9219,650.6563 1285.7188,650.4531 Q1285.5156,650.2656 1285.4063,649.75 Q1285.3594,649.3906 1285.1719,649.2031 Q1284.8438,648.8281 1284.2344,648.6094 Q1283.625,648.3906 1283,648.3906 Q1282.2344,648.3906 1281.6016,648.7188 Q1280.9688,649.0469 1280.4766,649.7969 Q1279.9844,650.5469 1279.9844,651.5781 L1279.9844,652.6719 Q1279.9844,653.9063 1280.875,654.7266 Q1281.7656,655.5469 1283.3594,655.5469 Q1284.2969,655.5469 1284.9531,655.2969 Q1285.3438,655.1406 1285.7656,654.7031 Q1286.0313,654.4375 1286.1797,654.3594 Q1286.3281,654.2813 1286.5313,654.2813 Q1286.8594,654.2813 1287.1172,654.5391 Q1287.375,654.7969 1287.375,655.1406 Q1287.375,655.4844 1287.0313,655.8906 Q1286.5313,656.4688 1285.7344,656.7969 Q1284.6563,657.25 1283.3594,657.25 Q1281.8438,657.25 1280.6406,656.625 Q1279.6563,656.125 1278.9688,655.0547 Q1278.2813,653.9844 1278.2813,652.7031 L1278.2813,651.5469 Q1278.2813,650.2188 1278.8984,649.0703 Q1279.5156,647.9219 1280.6094,647.3047 Q1281.7031,646.6875 1282.9375,646.6875 Q1283.6719,646.6875 1284.3203,646.8516 Q1284.9688,647.0156 1285.5156,647.375 Z " fill="#000000"/><text fill="#000000" font-family="sans-serif" font-size="14" lengthAdjust="spacing" textLength="58" x="1303.25" y="657.2285">Scalar3D</text><line style="stroke:#181818;stroke-width:0.5;" x1="1110" x2="1522" y1="667.5" y2="667.5"/><line style="stroke:#181818;stroke-width:0.5;" x1="1110" x2="1522" y1="675.5" y2="675.5"/><text fill="#000000" font-family="sans-serif" font-size="14" lengthAdjust="spacing" textLength="39" x="1115" y="694.0332">grad()</text><text fill="#000000" font-family="sans-serif" font-size="14" lengthAdjust="spacing" textLength="66" x="1115" y="711.6426">laplacian()</text><text fill="#000000" font-family="sans-serif" font-size="14" lengthAdjust="spacing" textLength="402" x="1115" y="729.252">transform_to(new_sys: OrthogonalCoordinates3D) -&gt; Tensor3D</text></g><!--MD5=[e4f379496a7126121ab6f0bcae4a6c2b]
class pg_utils.sympy_supp.vector_calculus_3d.SphericalCoordinates--><g id="elem_pg_utils.sympy_supp.vector_calculus_3d.SphericalCoordinates"><rect codeLine="72" fill="#F1F1F1" height="171.2656" id="pg_utils.sympy_supp.vector_calculus_3d.SphericalCoordinates" rx="2.5" ry="2.5" style="stroke:#181818;stroke-width:0.5;" width="630" x="1183" y="192"/><ellipse cx="1425.75" cy="208" fill="#ADD1B2" rx="11" ry="11" style="stroke:#181818;stroke-width:1.0;"/><path d="M1428.5156,203.875 Q1428.6719,203.6563 1428.8594,203.5469 Q1429.0469,203.4375 1429.2656,203.4375 Q1429.6406,203.4375 1429.875,203.6953 Q1430.1094,203.9531 1430.1094,204.5625 L1430.1094,206.0156 Q1430.1094,206.625 1429.875,206.8906 Q1429.6406,207.1563 1429.2656,207.1563 Q1428.9219,207.1563 1428.7188,206.9531 Q1428.5156,206.7656 1428.4063,206.25 Q1428.3594,205.8906 1428.1719,205.7031 Q1427.8438,205.3281 1427.2344,205.1094 Q1426.625,204.8906 1426,204.8906 Q1425.2344,204.8906 1424.6016,205.2188 Q1423.9688,205.5469 1423.4766,206.2969 Q1422.9844,207.0469 1422.9844,208.0781 L1422.9844,209.1719 Q1422.9844,210.4063 1423.875,211.2266 Q1424.7656,212.0469 1426.3594,212.0469 Q1427.2969,212.0469 1427.9531,211.7969 Q1428.3438,211.6406 1428.7656,211.2031 Q1429.0313,210.9375 1429.1797,210.8594 Q1429.3281,210.7813 1429.5313,210.7813 Q1429.8594,210.7813 1430.1172,211.0391 Q1430.375,211.2969 1430.375,211.6406 Q1430.375,211.9844 1430.0313,212.3906 Q1429.5313,212.9688 1428.7344,213.2969 Q1427.6563,213.75 1426.3594,213.75 Q1424.8438,213.75 1423.6406,213.125 Q1422.6563,212.625 1421.9688,211.5547 Q1421.2813,210.4844 1421.2813,209.2031 L1421.2813,208.0469 Q1421.2813,206.7188 1421.8984,205.5703 Q1422.5156,204.4219 1423.6094,203.8047 Q1424.7031,203.1875 1425.9375,203.1875 Q1426.6719,203.1875 1427.3203,203.3516 Q1427.9688,203.5156 1428.5156,203.875 Z " fill="#000000"/><text fill="#000000" font-family="sans-serif" font-size="14" lengthAdjust="spacing" textLength="136" x="1446.25" y="213.7285">SphericalCoordinates</text><line style="stroke:#181818;stroke-width:0.5;" x1="1184" x2="1812" y1="224" y2="224"/><line style="stroke:#181818;stroke-width:0.5;" x1="1184" x2="1812" y1="232" y2="232"/><text fill="#000000" font-family="sans-serif" font-size="14" lengthAdjust="spacing" textLength="91" x="1189" y="250.5332">curl(vector_in)</text><text fill="#000000" font-family="sans-serif" font-size="14" lengthAdjust="spacing" textLength="86" x="1189" y="268.1426">div(vector_in)</text><text fill="#000000" font-family="sans-serif" font-size="14" lengthAdjust="spacing" textLength="96" x="1189" y="285.752">grad(scalar_in)</text><text fill="#000000" font-family="sans-serif" font-size="14" lengthAdjust="spacing" textLength="161" x="1189" y="303.3613">laplacian(tensor_in, rank)</text><text fill="#000000" font-family="sans-serif" font-size="14" lengthAdjust="spacing" textLength="141" x="1189" y="320.9707">surface_div(vector_in)</text><text fill="#000000" font-family="sans-serif" font-size="14" font-style="italic" lengthAdjust="spacing" textLength="151" x="1189" y="338.5801">surface_grad(scalar_in)</text><text fill="#000000" font-family="sans-serif" font-size="14" lengthAdjust="spacing" textLength="618" x="1189" y="356.1895">transform_to(v_in, new_sys: OrthogonalCoordinates3D, coeffs_new) -&gt; OrthogonalCoordinates3D</text></g><!--MD5=[c946b763e60fcc6a9785786f411e9ac0]
class pg_utils.sympy_supp.vector_calculus_3d.Tensor3D--><g id="elem_pg_utils.sympy_supp.vector_calculus_3d.Tensor3D"><rect codeLine="81" fill="#F1F1F1" height="136.0469" id="pg_utils.sympy_supp.vector_calculus_3d.Tensor3D" rx="2.5" ry="2.5" style="stroke:#181818;stroke-width:0.5;" width="420" x="1106" y="841"/><ellipse cx="1280.25" cy="857" fill="#ADD1B2" rx="11" ry="11" style="stroke:#181818;stroke-width:1.0;"/><path d="M1283.0156,852.875 Q1283.1719,852.6563 1283.3594,852.5469 Q1283.5469,852.4375 1283.7656,852.4375 Q1284.1406,852.4375 1284.375,852.6953 Q1284.6094,852.9531 1284.6094,853.5625 L1284.6094,855.0156 Q1284.6094,855.625 1284.375,855.8906 Q1284.1406,856.1563 1283.7656,856.1563 Q1283.4219,856.1563 1283.2188,855.9531 Q1283.0156,855.7656 1282.9063,855.25 Q1282.8594,854.8906 1282.6719,854.7031 Q1282.3438,854.3281 1281.7344,854.1094 Q1281.125,853.8906 1280.5,853.8906 Q1279.7344,853.8906 1279.1016,854.2188 Q1278.4688,854.5469 1277.9766,855.2969 Q1277.4844,856.0469 1277.4844,857.0781 L1277.4844,858.1719 Q1277.4844,859.4063 1278.375,860.2266 Q1279.2656,861.0469 1280.8594,861.0469 Q1281.7969,861.0469 1282.4531,860.7969 Q1282.8438,860.6406 1283.2656,860.2031 Q1283.5313,859.9375 1283.6797,859.8594 Q1283.8281,859.7813 1284.0313,859.7813 Q1284.3594,859.7813 1284.6172,860.0391 Q1284.875,860.2969 1284.875,860.6406 Q1284.875,860.9844 1284.5313,861.3906 Q1284.0313,861.9688 1283.2344,862.2969 Q1282.1563,862.75 1280.8594,862.75 Q1279.3438,862.75 1278.1406,862.125 Q1277.1563,861.625 1276.4688,860.5547 Q1275.7813,859.4844 1275.7813,858.2031 L1275.7813,857.0469 Q1275.7813,855.7188 1276.3984,854.5703 Q1277.0156,853.4219 1278.1094,852.8047 Q1279.2031,852.1875 1280.4375,852.1875 Q1281.1719,852.1875 1281.8203,852.3516 Q1282.4688,852.5156 1283.0156,852.875 Z " fill="#000000"/><text fill="#000000" font-family="sans-serif" font-size="14" lengthAdjust="spacing" textLength="63" x="1300.75" y="862.7285">Tensor3D</text><line style="stroke:#181818;stroke-width:0.5;" x1="1107" x2="1525" y1="873" y2="873"/><text fill="#000000" font-family="sans-serif" font-size="14" lengthAdjust="spacing" textLength="65" x="1112" y="891.5332">coord_sys</text><text fill="#000000" font-family="sans-serif" font-size="14" lengthAdjust="spacing" textLength="57" x="1112" y="909.1426">ndim : int</text><text fill="#000000" font-family="sans-serif" font-size="14" lengthAdjust="spacing" textLength="55" x="1112" y="926.752">rank : int</text><text fill="#000000" font-family="sans-serif" font-size="14" lengthAdjust="spacing" textLength="40" x="1112" y="944.3613">tensor</text><line style="stroke:#181818;stroke-width:0.5;" x1="1107" x2="1525" y1="951.4375" y2="951.4375"/><text fill="#000000" font-family="sans-serif" font-size="14" lengthAdjust="spacing" textLength="408" x="1112" y="969.9707">transform_to(new_sys: OrthogonalCoordinates3D) -&gt; 'Tensor3D'</text></g><!--MD5=[8471d3a85aac21c79dbebdb9e8a7471a]
class pg_utils.sympy_supp.vector_calculus_3d.Vector3D--><g id="elem_pg_utils.sympy_supp.vector_calculus_3d.Vector3D"><rect codeLine="88" fill="#F1F1F1" height="100.8281" id="pg_utils.sympy_supp.vector_calculus_3d.Vector3D" rx="2.5" ry="2.5" style="stroke:#181818;stroke-width:0.5;" width="91" x="1558.5" y="635.5"/><ellipse cx="1573.5" cy="651.5" fill="#ADD1B2" rx="11" ry="11" style="stroke:#181818;stroke-width:1.0;"/><path d="M1576.2656,647.375 Q1576.4219,647.1563 1576.6094,647.0469 Q1576.7969,646.9375 1577.0156,646.9375 Q1577.3906,646.9375 1577.625,647.1953 Q1577.8594,647.4531 1577.8594,648.0625 L1577.8594,649.5156 Q1577.8594,650.125 1577.625,650.3906 Q1577.3906,650.6563 1577.0156,650.6563 Q1576.6719,650.6563 1576.4688,650.4531 Q1576.2656,650.2656 1576.1563,649.75 Q1576.1094,649.3906 1575.9219,649.2031 Q1575.5938,648.8281 1574.9844,648.6094 Q1574.375,648.3906 1573.75,648.3906 Q1572.9844,648.3906 1572.3516,648.7188 Q1571.7188,649.0469 1571.2266,649.7969 Q1570.7344,650.5469 1570.7344,651.5781 L1570.7344,652.6719 Q1570.7344,653.9063 1571.625,654.7266 Q1572.5156,655.5469 1574.1094,655.5469 Q1575.0469,655.5469 1575.7031,655.2969 Q1576.0938,655.1406 1576.5156,654.7031 Q1576.7813,654.4375 1576.9297,654.3594 Q1577.0781,654.2813 1577.2813,654.2813 Q1577.6094,654.2813 1577.8672,654.5391 Q1578.125,654.7969 1578.125,655.1406 Q1578.125,655.4844 1577.7813,655.8906 Q1577.2813,656.4688 1576.4844,656.7969 Q1575.4063,657.25 1574.1094,657.25 Q1572.5938,657.25 1571.3906,656.625 Q1570.4063,656.125 1569.7188,655.0547 Q1569.0313,653.9844 1569.0313,652.7031 L1569.0313,651.5469 Q1569.0313,650.2188 1569.6484,649.0703 Q1570.2656,647.9219 1571.3594,647.3047 Q1572.4531,646.6875 1573.6875,646.6875 Q1574.4219,646.6875 1575.0703,646.8516 Q1575.7188,647.0156 1576.2656,647.375 Z " fill="#000000"/><text fill="#000000" font-family="sans-serif" font-size="14" lengthAdjust="spacing" textLength="59" x="1587.5" y="657.2285">Vector3D</text><line style="stroke:#181818;stroke-width:0.5;" x1="1559.5" x2="1648.5" y1="667.5" y2="667.5"/><line style="stroke:#181818;stroke-width:0.5;" x1="1559.5" x2="1648.5" y1="675.5" y2="675.5"/><text fill="#000000" font-family="sans-serif" font-size="14" lengthAdjust="spacing" textLength="33" x="1564.5" y="694.0332">curl()</text><text fill="#000000" font-family="sans-serif" font-size="14" lengthAdjust="spacing" textLength="28" x="1564.5" y="711.6426">div()</text><text fill="#000000" font-family="sans-serif" font-size="14" lengthAdjust="spacing" textLength="66" x="1564.5" y="729.252">laplacian()</text></g><!--MD5=[dda1d092fd43db7073e19ce53cc21efc]
link pg_utils.pg_model.base.CollectionPG to pg_utils.pg_model.base.LabeledCollection--><g id="link_pg_utils.pg_model.base.CollectionPG_pg_utils.pg_model.base.LabeledCollection"><path codeLine="93" d="M1925,548.23 C1925,569.12 1925,588.97 1925,606.73 " fill="none" id="pg_utils.pg_model.base.CollectionPG-to-pg_utils.pg_model.base.LabeledCollection" style="stroke:#181818;stroke-width:1.0;"/><polygon fill="none" points="1932,606.93,1925,626.93,1918,606.93,1932,606.93" style="stroke:#181818;stroke-width:1.0;"/></g><!--MD5=[44a406536bd93deac4dc891e566d3a00]
link pg_utils.sympy_supp.vector_calculus_3d.CartesianCoordinates3D to pg_utils.sympy_supp.vector_calculus_3d.OrthogonalCoordinates3D--><g id="link_pg_utils.sympy_supp.vector_calculus_3d.CartesianCoordinates3D_pg_utils.sympy_supp.vector_calculus_3d.OrthogonalCoordinates3D"><path codeLine="94" d="M295.01,345.73 C342.31,405.45 418.09,491.76 500,548 C528.35,567.46 559.89,584.89 591.95,600.25 " fill="none" id="pg_utils.sympy_supp.vector_calculus_3d.CartesianCoordinates3D-to-pg_utils.sympy_supp.vector_calculus_3d.OrthogonalCoordinates3D" style="stroke:#181818;stroke-width:1.0;"/><polygon fill="none" points="595.15,594.02,610.32,608.82,589.24,606.71,595.15,594.02" style="stroke:#181818;stroke-width:1.0;"/></g><!--MD5=[0b5cf24d61da7627c443c1b6694e2b6c]
link pg_utils.sympy_supp.vector_calculus_3d.CylindricalCoordinates to pg_utils.sympy_supp.vector_calculus_3d.OrthogonalCoordinates3D--><g id="link_pg_utils.sympy_supp.vector_calculus_3d.CylindricalCoordinates_pg_utils.sympy_supp.vector_calculus_3d.OrthogonalCoordinates3D"><path codeLine="95" d="M833,345.63 C833,411.79 833,513.58 833,588.43 " fill="none" id="pg_utils.sympy_supp.vector_calculus_3d.CylindricalCoordinates-to-pg_utils.sympy_supp.vector_calculus_3d.OrthogonalCoordinates3D" style="stroke:#181818;stroke-width:1.0;"/><polygon fill="none" points="840,588.77,833,608.77,826,588.77,840,588.77" style="stroke:#181818;stroke-width:1.0;"/></g><!--MD5=[d1532840a56dcc738d6a228be26b5bba]
link pg_utils.sympy_supp.vector_calculus_3d.Scalar3D to pg_utils.sympy_supp.vector_calculus_3d.Tensor3D--><g id="link_pg_utils.sympy_supp.vector_calculus_3d.Scalar3D_pg_utils.sympy_supp.vector_calculus_3d.Tensor3D"><path codeLine="96" d="M1316,736.6 C1316,761.38 1316,792.1 1316,820.67 " fill="none" id="pg_utils.sympy_supp.vector_calculus_3d.Scalar3D-to-pg_utils.sympy_supp.vector_calculus_3d.Tensor3D" style="stroke:#181818;stroke-width:1.0;"/><polygon fill="none" points="1323,820.97,1316,840.97,1309,820.97,1323,820.97" style="stroke:#181818;stroke-width:1.0;"/></g><!--MD5=[397a631c72270c1dcd5c8cd744136ef1]
link pg_utils.sympy_supp.vector_calculus_3d.SphericalCoordinates to pg_utils.sympy_supp.vector_calculus_3d.OrthogonalCoordinates3D--><g id="link_pg_utils.sympy_supp.vector_calculus_3d.SphericalCoordinates_pg_utils.sympy_supp.vector_calculus_3d.OrthogonalCoordinates3D"><path codeLine="97" d="M1408.26,363.16 C1344.1,420.57 1253.73,495.31 1165,548 C1132.7,567.18 1097.21,584.92 1061.83,600.84 " fill="none" id="pg_utils.sympy_supp.vector_calculus_3d.SphericalCoordinates-to-pg_utils.sympy_supp.vector_calculus_3d.OrthogonalCoordinates3D" style="stroke:#181818;stroke-width:1.0;"/><polygon fill="none" points="1064.48,607.32,1043.36,608.99,1058.83,594.51,1064.48,607.32" style="stroke:#181818;stroke-width:1.0;"/></g><!--MD5=[5bc8eab1faf1204cff5ec16a1d488687]
link pg_utils.sympy_supp.vector_calculus_3d.Vector3D to pg_utils.sympy_supp.vector_calculus_3d.Tensor3D--><g id="link_pg_utils.sympy_supp.vector_calculus_3d.Vector3D_pg_utils.sympy_supp.vector_calculus_3d.Tensor3D"><path codeLine="98" d="M1565.73,736.81 C1557.69,745.98 1548.93,755.13 1540,763 C1512.81,786.98 1481.31,809.85 1450.68,830.04 " fill="none" id="pg_utils.sympy_supp.vector_calculus_3d.Vector3D-to-pg_utils.sympy_supp.vector_calculus_3d.Tensor3D" style="stroke:#181818;stroke-width:1.0;"/><polygon fill="none" points="1454.37,835.99,1433.78,840.98,1446.77,824.23,1454.37,835.99" style="stroke:#181818;stroke-width:1.0;"/></g><!--MD5=[89539475c913562a5df6c0519710c391]
link pg_utils.pg_model.base.LabeledCollection to pg_utils.pg_model.base.LabeledSubCollection--><g id="link_pg_utils.pg_model.base.LabeledCollection_pg_utils.pg_model.base.LabeledSubCollection"><path codeLine="99" d="M1925,745.07 C1925,770.34 1925,800.39 1925,827.75 " fill="none" id="pg_utils.pg_model.base.LabeledCollection-to-pg_utils.pg_model.base.LabeledSubCollection" style="stroke:#181818;stroke-width:1.0;"/><polygon fill="none" points="1925,840.93,1929,834.93,1925,828.93,1921,834.93,1925,840.93" style="stroke:#181818;stroke-width:1.0;"/><text fill="#000000" font-family="sans-serif" font-size="13" lengthAdjust="spacing" textLength="90" x="1926" y="807.4951">base_collection</text></g><!--MD5=[4f95e16e480e2b0984c2e7b361d30fa8]
link pg_utils.sympy_supp.vector_calculus_3d.OrthogonalCoordinates3D to pg_utils.sympy_supp.vector_calculus_3d.Tensor3D--><g id="link_pg_utils.sympy_supp.vector_calculus_3d.OrthogonalCoordinates3D_pg_utils.sympy_supp.vector_calculus_3d.Tensor3D"><path codeLine="100" d="M999.22,763.06 C1050.38,786.46 1106.54,812.16 1157.19,835.33 " fill="none" id="pg_utils.sympy_supp.vector_calculus_3d.OrthogonalCoordinates3D-to-pg_utils.sympy_supp.vector_calculus_3d.Tensor3D" style="stroke:#181818;stroke-width:1.0;"/><polygon fill="none" points="1169.26,840.86,1165.4692,834.7257,1158.3487,835.8656,1162.1396,841.9999,1169.26,840.86" style="stroke:#181818;stroke-width:1.0;"/><text fill="#000000" font-family="sans-serif" font-size="13" lengthAdjust="spacing" textLength="60" x="1105" y="807.4951">coord_sys</text></g><!--MD5=[a0554f0257eb2bfda59a148105e95bd5]
@startuml classes_pg_assim
set namespaceSeparator none
class "CartesianCoordinates3D" as pg_utils.sympy_supp.vector_calculus_3d.CartesianCoordinates3D {
  curl(vector_in)
  div(vector_in)
  grad(scalar_in)
  laplacian(tensor_in, rank)
  transform_to(tensor_in, new_sys: OrthogonalCoordinates3D, coeffs_new)
}
class "CollectionPG" as pg_utils.pg_model.base.CollectionPG {
  Bp_e
  Bp_m
  Bp_p
  Br_b
  Bs_e
  Bs_m
  Bs_p
  Bz_e
  Bz_m
  Bz_p
  Mpp
  Mpz
  Msp
  Mss
  Msz
  Psi
  dBp_dz_e
  dBs_dz_e
  pg_field_names : list
  zMpp
  zMsp
  zMss
  subset_B_bound()
  subset_B_bound_cyl()
  subset_B_equator()
  subset_mag()
  subset_moments()
  vorticity()
}
class "CylindricalCoordinates" as pg_utils.sympy_supp.vector_calculus_3d.CylindricalCoordinates {
  curl(vector_in)
  div(vector_in)
  grad(scalar_in)
  laplacian(tensor_in, rank)
  transform_to(v_in, new_sys: OrthogonalCoordinates3D, coeffs_new) -> OrthogonalCoordinates3D
}
class "LabeledCollection" as pg_utils.pg_model.base.LabeledCollection {
  iter_filter
  iter_name
  n_fields
  n_iter : int
}
class "LabeledSubCollection" as pg_utils.pg_model.base.LabeledSubCollection {
  base_collection
  iter_filter
  iter_name
  n_fields
  n_iter : int
}
class "OrthogonalCoordinates3D" as pg_utils.sympy_supp.vector_calculus_3d.OrthogonalCoordinates3D {
  coords
  {abstract}curl(vector_in)
  {abstract}div(vector_in)
  {abstract}grad(scalar_in)
  {abstract}laplacian(tensor_in, rank)
  {abstract}transform_to(tensor_in, new_sys: 'OrthogonalCoordinates3D', coeffs_new)
}
class "Scalar3D" as pg_utils.sympy_supp.vector_calculus_3d.Scalar3D {
  grad()
  laplacian()
  transform_to(new_sys: OrthogonalCoordinates3D) -> Tensor3D
}
class "SphericalCoordinates" as pg_utils.sympy_supp.vector_calculus_3d.SphericalCoordinates {
  curl(vector_in)
  div(vector_in)
  grad(scalar_in)
  laplacian(tensor_in, rank)
  surface_div(vector_in)
  {abstract}surface_grad(scalar_in)
  transform_to(v_in, new_sys: OrthogonalCoordinates3D, coeffs_new) -> OrthogonalCoordinates3D
}
class "Tensor3D" as pg_utils.sympy_supp.vector_calculus_3d.Tensor3D {
  coord_sys
  ndim : int
  rank : int
  tensor
  transform_to(new_sys: OrthogonalCoordinates3D) -> 'Tensor3D'
}
class "Vector3D" as pg_utils.sympy_supp.vector_calculus_3d.Vector3D {
  curl()
  div()
  laplacian()
}
pg_utils.pg_model.base.CollectionPG - -|> pg_utils.pg_model.base.LabeledCollection
pg_utils.sympy_supp.vector_calculus_3d.CartesianCoordinates3D - -|> pg_utils.sympy_supp.vector_calculus_3d.OrthogonalCoordinates3D
pg_utils.sympy_supp.vector_calculus_3d.CylindricalCoordinates - -|> pg_utils.sympy_supp.vector_calculus_3d.OrthogonalCoordinates3D
pg_utils.sympy_supp.vector_calculus_3d.Scalar3D - -|> pg_utils.sympy_supp.vector_calculus_3d.Tensor3D
pg_utils.sympy_supp.vector_calculus_3d.SphericalCoordinates - -|> pg_utils.sympy_supp.vector_calculus_3d.OrthogonalCoordinates3D
pg_utils.sympy_supp.vector_calculus_3d.Vector3D - -|> pg_utils.sympy_supp.vector_calculus_3d.Tensor3D
pg_utils.pg_model.base.LabeledCollection - -o pg_utils.pg_model.base.LabeledSubCollection : base_collection
pg_utils.sympy_supp.vector_calculus_3d.OrthogonalCoordinates3D - -o pg_utils.sympy_supp.vector_calculus_3d.Tensor3D : coord_sys
@enduml

PlantUML version 1.2022.7(Mon Aug 22 19:01:30 CEST 2022)
(GPL source distribution)
Java Runtime: Java(TM) SE Runtime Environment
JVM: Java HotSpot(TM) Client VM
Default Encoding: Cp1252
Language: en
Country: US
--></g></svg>